M48
; DRILL file {KiCad (5.1.4)-1} date 2019-12-13 13:31:45
; FORMAT={-:-/ absolute / inch / decimal}
; #@! TF.CreationDate,2019-12-13T13:31:45+01:00
; #@! TF.GenerationSoftware,Kicad,Pcbnew,(5.1.4)-1
FMAT,2
INCH
T1C0.0276
T2C0.0315
T3C0.0394
T4C0.0433
T5C0.0472
T6C0.1260
T7C0.1260
%
G90
G05
T1
X6.16Y-2.9716
X6.16Y-3.07
X5.57Y-3.3216
X5.57Y-3.42
T2
X5.86Y-2.44
X5.86Y-2.5384
X5.79Y-3.3
X6.19Y-3.3
X6.18Y-1.95
X6.18Y-2.35
X5.6751Y-2.82
X5.6751Y-2.92
X5.6751Y-3.02
X5.6751Y-3.12
X5.9849Y-2.82
X5.9849Y-2.92
X5.9849Y-3.02
X5.9849Y-3.12
X5.99Y-3.42
X5.99Y-3.82
T3
X6.6Y-4.31
X6.7Y-4.31
X5.6338Y-4.4169
X5.6883Y-4.5287
X5.7428Y-4.4169
X5.7974Y-4.5287
X5.8519Y-4.4169
X5.9064Y-4.5287
X5.9609Y-4.4169
X6.0155Y-4.5287
X6.07Y-4.4169
X5.35Y-2.8679
X5.35Y-2.9679
X5.35Y-3.0679
X5.35Y-3.1679
X5.35Y-3.2679
X5.35Y-3.3679
X5.35Y-3.4679
X5.35Y-3.5679
X5.35Y-3.6679
X5.35Y-3.7679
X6.35Y-2.8679
X6.35Y-2.9679
X6.35Y-3.0679
X6.35Y-3.1679
X6.35Y-3.2679
X6.35Y-3.3679
X6.35Y-3.4679
X6.35Y-3.5679
X6.35Y-3.6679
X6.35Y-3.7679
X6.56Y-3.61
X6.66Y-3.61
T4
X5.46Y-2.13
X5.76Y-2.13
T5
X5.99Y-3.99
X6.39Y-3.99
X6.58Y-2.86
X6.58Y-3.36
X6.34Y-2.51
X6.74Y-2.51
T6
X5.3598Y-4.4728
X6.344Y-4.4728
T7
X6.95Y-1.91
X5.06Y-1.91
X5.06Y-4.58
X6.94Y-4.58
T0
M30
