G04 #@! TF.GenerationSoftware,KiCad,Pcbnew,(5.1.4)-1*
G04 #@! TF.CreationDate,2019-12-13T13:31:55+01:00*
G04 #@! TF.ProjectId,LIN bus esp32,4c494e20-6275-4732-9065-737033322e6b,2*
G04 #@! TF.SameCoordinates,Original*
G04 #@! TF.FileFunction,Copper,L2,Bot*
G04 #@! TF.FilePolarity,Positive*
%FSLAX46Y46*%
G04 Gerber Fmt 4.6, Leading zero omitted, Abs format (unit mm)*
G04 Created by KiCad (PCBNEW (5.1.4)-1) date 2019-12-13 13:31:55*
%MOMM*%
%LPD*%
G04 APERTURE LIST*
%ADD10C,1.700000*%
%ADD11C,4.000000*%
%ADD12C,1.600000*%
%ADD13R,1.600000X1.600000*%
%ADD14O,1.700000X1.700000*%
%ADD15R,1.700000X1.700000*%
%ADD16O,1.600000X1.600000*%
%ADD17C,1.308000*%
%ADD18R,1.308000X1.308000*%
%ADD19O,2.400000X2.400000*%
%ADD20R,2.400000X2.400000*%
%ADD21O,2.200000X2.200000*%
%ADD22R,2.200000X2.200000*%
%ADD23C,1.400000*%
%ADD24C,0.508000*%
%ADD25C,0.762000*%
%ADD26C,0.254000*%
G04 APERTURE END LIST*
D10*
X135890000Y-72844000D03*
X135890000Y-75384000D03*
X135890000Y-77924000D03*
X135890000Y-80464000D03*
X135890000Y-83004000D03*
X135890000Y-85544000D03*
X135890000Y-88084000D03*
X135890000Y-90624000D03*
X135890000Y-93164000D03*
X135890000Y-95704000D03*
X161290000Y-72844000D03*
X161290000Y-75384000D03*
X161290000Y-77924000D03*
X161290000Y-80464000D03*
X161290000Y-83004000D03*
X161290000Y-85544000D03*
X161290000Y-88084000D03*
X161290000Y-90624000D03*
X161290000Y-93164000D03*
X161290000Y-95704000D03*
D11*
X136138000Y-113608000D03*
X161138000Y-113608000D03*
D12*
X144483000Y-115028000D03*
X147253000Y-115028000D03*
X150023000Y-115028000D03*
X152793000Y-115028000D03*
X143098000Y-112188000D03*
X145868000Y-112188000D03*
X148638000Y-112188000D03*
X151408000Y-112188000D03*
D13*
X154178000Y-112188000D03*
D14*
X167640000Y-109474000D03*
D15*
X170180000Y-109474000D03*
D12*
X148844000Y-64476000D03*
D13*
X148844000Y-61976000D03*
D16*
X152146000Y-86868000D03*
D12*
X152146000Y-97028000D03*
D16*
X156972000Y-49530000D03*
D12*
X156972000Y-59690000D03*
D16*
X157226000Y-83820000D03*
D12*
X147066000Y-83820000D03*
D14*
X169164000Y-91694000D03*
D15*
X166624000Y-91694000D03*
D17*
X144147000Y-74168000D03*
X144147000Y-76708000D03*
X144147000Y-71628000D03*
X144147000Y-79248000D03*
D18*
X152017000Y-71628000D03*
D17*
X152017000Y-79248000D03*
X152017000Y-74168000D03*
X152017000Y-76708000D03*
D19*
X167132000Y-72644000D03*
D20*
X167132000Y-85344000D03*
D19*
X162306000Y-101346000D03*
D20*
X152146000Y-101346000D03*
D19*
X171196000Y-63754000D03*
D20*
X161036000Y-63754000D03*
D21*
X138684000Y-54102000D03*
D22*
X146304000Y-54102000D03*
D23*
X141478000Y-84368000D03*
X141478000Y-86868000D03*
X156464000Y-75478000D03*
X156464000Y-77978000D03*
D24*
X135890000Y-75184000D02*
X137414000Y-75184000D01*
X137414000Y-75184000D02*
X142494000Y-80264000D01*
X142494000Y-80264000D02*
X142494000Y-81280000D01*
X145034000Y-83820000D02*
X147066000Y-83820000D01*
X142494000Y-81280000D02*
X145034000Y-83820000D01*
D25*
X170180000Y-109474000D02*
X170180000Y-105918000D01*
X165608000Y-101346000D02*
X162306000Y-101346000D01*
X170180000Y-105918000D02*
X165608000Y-101346000D01*
D26*
X135890000Y-92964000D02*
X141986000Y-92964000D01*
X152017000Y-82933000D02*
X152017000Y-79248000D01*
X141986000Y-92964000D02*
X152017000Y-82933000D01*
G36*
X179340001Y-119340000D02*
G01*
X125660000Y-119340000D01*
X125660000Y-116111872D01*
X126289000Y-116111872D01*
X126289000Y-116552128D01*
X126374890Y-116983925D01*
X126543369Y-117390669D01*
X126787962Y-117756729D01*
X127099271Y-118068038D01*
X127465331Y-118312631D01*
X127872075Y-118481110D01*
X128303872Y-118567000D01*
X128744128Y-118567000D01*
X129175925Y-118481110D01*
X129582669Y-118312631D01*
X129948729Y-118068038D01*
X130260038Y-117756729D01*
X130504631Y-117390669D01*
X130673110Y-116983925D01*
X130759000Y-116552128D01*
X130759000Y-116111872D01*
X130673110Y-115680075D01*
X130504631Y-115273331D01*
X130260038Y-114907271D01*
X129948729Y-114595962D01*
X129582669Y-114351369D01*
X129175925Y-114182890D01*
X128744128Y-114097000D01*
X128303872Y-114097000D01*
X127872075Y-114182890D01*
X127465331Y-114351369D01*
X127099271Y-114595962D01*
X126787962Y-114907271D01*
X126543369Y-115273331D01*
X126374890Y-115680075D01*
X126289000Y-116111872D01*
X125660000Y-116111872D01*
X125660000Y-113348475D01*
X133503000Y-113348475D01*
X133503000Y-113867525D01*
X133604261Y-114376601D01*
X133802893Y-114856141D01*
X134091262Y-115287715D01*
X134458285Y-115654738D01*
X134889859Y-115943107D01*
X135369399Y-116141739D01*
X135878475Y-116243000D01*
X136397525Y-116243000D01*
X136906601Y-116141739D01*
X137386141Y-115943107D01*
X137817715Y-115654738D01*
X138184738Y-115287715D01*
X138452711Y-114886665D01*
X143048000Y-114886665D01*
X143048000Y-115169335D01*
X143103147Y-115446574D01*
X143211320Y-115707727D01*
X143368363Y-115942759D01*
X143568241Y-116142637D01*
X143803273Y-116299680D01*
X144064426Y-116407853D01*
X144341665Y-116463000D01*
X144624335Y-116463000D01*
X144901574Y-116407853D01*
X145162727Y-116299680D01*
X145397759Y-116142637D01*
X145597637Y-115942759D01*
X145754680Y-115707727D01*
X145862853Y-115446574D01*
X145868000Y-115420699D01*
X145873147Y-115446574D01*
X145981320Y-115707727D01*
X146138363Y-115942759D01*
X146338241Y-116142637D01*
X146573273Y-116299680D01*
X146834426Y-116407853D01*
X147111665Y-116463000D01*
X147394335Y-116463000D01*
X147671574Y-116407853D01*
X147932727Y-116299680D01*
X148167759Y-116142637D01*
X148367637Y-115942759D01*
X148524680Y-115707727D01*
X148632853Y-115446574D01*
X148638000Y-115420699D01*
X148643147Y-115446574D01*
X148751320Y-115707727D01*
X148908363Y-115942759D01*
X149108241Y-116142637D01*
X149343273Y-116299680D01*
X149604426Y-116407853D01*
X149881665Y-116463000D01*
X150164335Y-116463000D01*
X150441574Y-116407853D01*
X150702727Y-116299680D01*
X150937759Y-116142637D01*
X151137637Y-115942759D01*
X151294680Y-115707727D01*
X151402853Y-115446574D01*
X151408000Y-115420699D01*
X151413147Y-115446574D01*
X151521320Y-115707727D01*
X151678363Y-115942759D01*
X151878241Y-116142637D01*
X152113273Y-116299680D01*
X152374426Y-116407853D01*
X152651665Y-116463000D01*
X152934335Y-116463000D01*
X153211574Y-116407853D01*
X153472727Y-116299680D01*
X153707759Y-116142637D01*
X153907637Y-115942759D01*
X154064680Y-115707727D01*
X154172853Y-115446574D01*
X154228000Y-115169335D01*
X154228000Y-114886665D01*
X154172853Y-114609426D01*
X154064680Y-114348273D01*
X153907637Y-114113241D01*
X153707759Y-113913363D01*
X153472727Y-113756320D01*
X153211574Y-113648147D01*
X152934335Y-113593000D01*
X152651665Y-113593000D01*
X152374426Y-113648147D01*
X152113273Y-113756320D01*
X151878241Y-113913363D01*
X151678363Y-114113241D01*
X151521320Y-114348273D01*
X151413147Y-114609426D01*
X151408000Y-114635301D01*
X151402853Y-114609426D01*
X151294680Y-114348273D01*
X151137637Y-114113241D01*
X150937759Y-113913363D01*
X150702727Y-113756320D01*
X150441574Y-113648147D01*
X150164335Y-113593000D01*
X149881665Y-113593000D01*
X149604426Y-113648147D01*
X149343273Y-113756320D01*
X149108241Y-113913363D01*
X148908363Y-114113241D01*
X148751320Y-114348273D01*
X148643147Y-114609426D01*
X148638000Y-114635301D01*
X148632853Y-114609426D01*
X148524680Y-114348273D01*
X148367637Y-114113241D01*
X148167759Y-113913363D01*
X147932727Y-113756320D01*
X147671574Y-113648147D01*
X147394335Y-113593000D01*
X147111665Y-113593000D01*
X146834426Y-113648147D01*
X146573273Y-113756320D01*
X146338241Y-113913363D01*
X146138363Y-114113241D01*
X145981320Y-114348273D01*
X145873147Y-114609426D01*
X145868000Y-114635301D01*
X145862853Y-114609426D01*
X145754680Y-114348273D01*
X145597637Y-114113241D01*
X145397759Y-113913363D01*
X145162727Y-113756320D01*
X144901574Y-113648147D01*
X144624335Y-113593000D01*
X144341665Y-113593000D01*
X144064426Y-113648147D01*
X143803273Y-113756320D01*
X143568241Y-113913363D01*
X143368363Y-114113241D01*
X143211320Y-114348273D01*
X143103147Y-114609426D01*
X143048000Y-114886665D01*
X138452711Y-114886665D01*
X138473107Y-114856141D01*
X138671739Y-114376601D01*
X138773000Y-113867525D01*
X138773000Y-113348475D01*
X138671739Y-112839399D01*
X138473107Y-112359859D01*
X138263838Y-112046665D01*
X141663000Y-112046665D01*
X141663000Y-112329335D01*
X141718147Y-112606574D01*
X141826320Y-112867727D01*
X141983363Y-113102759D01*
X142183241Y-113302637D01*
X142418273Y-113459680D01*
X142679426Y-113567853D01*
X142956665Y-113623000D01*
X143239335Y-113623000D01*
X143516574Y-113567853D01*
X143777727Y-113459680D01*
X144012759Y-113302637D01*
X144212637Y-113102759D01*
X144369680Y-112867727D01*
X144477853Y-112606574D01*
X144483000Y-112580699D01*
X144488147Y-112606574D01*
X144596320Y-112867727D01*
X144753363Y-113102759D01*
X144953241Y-113302637D01*
X145188273Y-113459680D01*
X145449426Y-113567853D01*
X145726665Y-113623000D01*
X146009335Y-113623000D01*
X146286574Y-113567853D01*
X146547727Y-113459680D01*
X146782759Y-113302637D01*
X146904694Y-113180702D01*
X147824903Y-113180702D01*
X147896486Y-113424671D01*
X148151996Y-113545571D01*
X148426184Y-113614300D01*
X148708512Y-113628217D01*
X148988130Y-113586787D01*
X149254292Y-113491603D01*
X149379514Y-113424671D01*
X149451097Y-113180702D01*
X148638000Y-112367605D01*
X147824903Y-113180702D01*
X146904694Y-113180702D01*
X146982637Y-113102759D01*
X147139680Y-112867727D01*
X147247853Y-112606574D01*
X147253513Y-112578118D01*
X147334397Y-112804292D01*
X147401329Y-112929514D01*
X147645298Y-113001097D01*
X148458395Y-112188000D01*
X148817605Y-112188000D01*
X149630702Y-113001097D01*
X149874671Y-112929514D01*
X149995571Y-112674004D01*
X150021212Y-112571711D01*
X150028147Y-112606574D01*
X150136320Y-112867727D01*
X150293363Y-113102759D01*
X150493241Y-113302637D01*
X150728273Y-113459680D01*
X150989426Y-113567853D01*
X151266665Y-113623000D01*
X151549335Y-113623000D01*
X151826574Y-113567853D01*
X152087727Y-113459680D01*
X152322759Y-113302637D01*
X152522637Y-113102759D01*
X152679680Y-112867727D01*
X152739928Y-112722275D01*
X152739928Y-112988000D01*
X152752188Y-113112482D01*
X152788498Y-113232180D01*
X152847463Y-113342494D01*
X152926815Y-113439185D01*
X153023506Y-113518537D01*
X153133820Y-113577502D01*
X153253518Y-113613812D01*
X153378000Y-113626072D01*
X154978000Y-113626072D01*
X155102482Y-113613812D01*
X155222180Y-113577502D01*
X155332494Y-113518537D01*
X155429185Y-113439185D01*
X155503628Y-113348475D01*
X158503000Y-113348475D01*
X158503000Y-113867525D01*
X158604261Y-114376601D01*
X158802893Y-114856141D01*
X159091262Y-115287715D01*
X159458285Y-115654738D01*
X159889859Y-115943107D01*
X160369399Y-116141739D01*
X160878475Y-116243000D01*
X161397525Y-116243000D01*
X161906601Y-116141739D01*
X161978706Y-116111872D01*
X174041000Y-116111872D01*
X174041000Y-116552128D01*
X174126890Y-116983925D01*
X174295369Y-117390669D01*
X174539962Y-117756729D01*
X174851271Y-118068038D01*
X175217331Y-118312631D01*
X175624075Y-118481110D01*
X176055872Y-118567000D01*
X176496128Y-118567000D01*
X176927925Y-118481110D01*
X177334669Y-118312631D01*
X177700729Y-118068038D01*
X178012038Y-117756729D01*
X178256631Y-117390669D01*
X178425110Y-116983925D01*
X178511000Y-116552128D01*
X178511000Y-116111872D01*
X178425110Y-115680075D01*
X178256631Y-115273331D01*
X178012038Y-114907271D01*
X177700729Y-114595962D01*
X177334669Y-114351369D01*
X176927925Y-114182890D01*
X176496128Y-114097000D01*
X176055872Y-114097000D01*
X175624075Y-114182890D01*
X175217331Y-114351369D01*
X174851271Y-114595962D01*
X174539962Y-114907271D01*
X174295369Y-115273331D01*
X174126890Y-115680075D01*
X174041000Y-116111872D01*
X161978706Y-116111872D01*
X162386141Y-115943107D01*
X162817715Y-115654738D01*
X163184738Y-115287715D01*
X163473107Y-114856141D01*
X163671739Y-114376601D01*
X163773000Y-113867525D01*
X163773000Y-113348475D01*
X163671739Y-112839399D01*
X163473107Y-112359859D01*
X163184738Y-111928285D01*
X162817715Y-111561262D01*
X162386141Y-111272893D01*
X161906601Y-111074261D01*
X161397525Y-110973000D01*
X160878475Y-110973000D01*
X160369399Y-111074261D01*
X159889859Y-111272893D01*
X159458285Y-111561262D01*
X159091262Y-111928285D01*
X158802893Y-112359859D01*
X158604261Y-112839399D01*
X158503000Y-113348475D01*
X155503628Y-113348475D01*
X155508537Y-113342494D01*
X155567502Y-113232180D01*
X155603812Y-113112482D01*
X155616072Y-112988000D01*
X155616072Y-111388000D01*
X155603812Y-111263518D01*
X155567502Y-111143820D01*
X155508537Y-111033506D01*
X155429185Y-110936815D01*
X155332494Y-110857463D01*
X155222180Y-110798498D01*
X155102482Y-110762188D01*
X154978000Y-110749928D01*
X153378000Y-110749928D01*
X153253518Y-110762188D01*
X153133820Y-110798498D01*
X153023506Y-110857463D01*
X152926815Y-110936815D01*
X152847463Y-111033506D01*
X152788498Y-111143820D01*
X152752188Y-111263518D01*
X152739928Y-111388000D01*
X152739928Y-111653725D01*
X152679680Y-111508273D01*
X152522637Y-111273241D01*
X152322759Y-111073363D01*
X152087727Y-110916320D01*
X151826574Y-110808147D01*
X151549335Y-110753000D01*
X151266665Y-110753000D01*
X150989426Y-110808147D01*
X150728273Y-110916320D01*
X150493241Y-111073363D01*
X150293363Y-111273241D01*
X150136320Y-111508273D01*
X150028147Y-111769426D01*
X150022487Y-111797882D01*
X149941603Y-111571708D01*
X149874671Y-111446486D01*
X149630702Y-111374903D01*
X148817605Y-112188000D01*
X148458395Y-112188000D01*
X147645298Y-111374903D01*
X147401329Y-111446486D01*
X147280429Y-111701996D01*
X147254788Y-111804289D01*
X147247853Y-111769426D01*
X147139680Y-111508273D01*
X146982637Y-111273241D01*
X146904694Y-111195298D01*
X147824903Y-111195298D01*
X148638000Y-112008395D01*
X149451097Y-111195298D01*
X149379514Y-110951329D01*
X149124004Y-110830429D01*
X148849816Y-110761700D01*
X148567488Y-110747783D01*
X148287870Y-110789213D01*
X148021708Y-110884397D01*
X147896486Y-110951329D01*
X147824903Y-111195298D01*
X146904694Y-111195298D01*
X146782759Y-111073363D01*
X146547727Y-110916320D01*
X146286574Y-110808147D01*
X146009335Y-110753000D01*
X145726665Y-110753000D01*
X145449426Y-110808147D01*
X145188273Y-110916320D01*
X144953241Y-111073363D01*
X144753363Y-111273241D01*
X144596320Y-111508273D01*
X144488147Y-111769426D01*
X144483000Y-111795301D01*
X144477853Y-111769426D01*
X144369680Y-111508273D01*
X144212637Y-111273241D01*
X144012759Y-111073363D01*
X143777727Y-110916320D01*
X143516574Y-110808147D01*
X143239335Y-110753000D01*
X142956665Y-110753000D01*
X142679426Y-110808147D01*
X142418273Y-110916320D01*
X142183241Y-111073363D01*
X141983363Y-111273241D01*
X141826320Y-111508273D01*
X141718147Y-111769426D01*
X141663000Y-112046665D01*
X138263838Y-112046665D01*
X138184738Y-111928285D01*
X137817715Y-111561262D01*
X137386141Y-111272893D01*
X136906601Y-111074261D01*
X136397525Y-110973000D01*
X135878475Y-110973000D01*
X135369399Y-111074261D01*
X134889859Y-111272893D01*
X134458285Y-111561262D01*
X134091262Y-111928285D01*
X133802893Y-112359859D01*
X133604261Y-112839399D01*
X133503000Y-113348475D01*
X125660000Y-113348475D01*
X125660000Y-109830891D01*
X166198519Y-109830891D01*
X166295843Y-110105252D01*
X166444822Y-110355355D01*
X166639731Y-110571588D01*
X166873080Y-110745641D01*
X167135901Y-110870825D01*
X167283110Y-110915476D01*
X167513000Y-110794155D01*
X167513000Y-109601000D01*
X166319186Y-109601000D01*
X166198519Y-109830891D01*
X125660000Y-109830891D01*
X125660000Y-109117109D01*
X166198519Y-109117109D01*
X166319186Y-109347000D01*
X167513000Y-109347000D01*
X167513000Y-108153845D01*
X167283110Y-108032524D01*
X167135901Y-108077175D01*
X166873080Y-108202359D01*
X166639731Y-108376412D01*
X166444822Y-108592645D01*
X166295843Y-108842748D01*
X166198519Y-109117109D01*
X125660000Y-109117109D01*
X125660000Y-100146000D01*
X150307928Y-100146000D01*
X150307928Y-102546000D01*
X150320188Y-102670482D01*
X150356498Y-102790180D01*
X150415463Y-102900494D01*
X150494815Y-102997185D01*
X150591506Y-103076537D01*
X150701820Y-103135502D01*
X150821518Y-103171812D01*
X150946000Y-103184072D01*
X153346000Y-103184072D01*
X153470482Y-103171812D01*
X153590180Y-103135502D01*
X153700494Y-103076537D01*
X153797185Y-102997185D01*
X153876537Y-102900494D01*
X153935502Y-102790180D01*
X153971812Y-102670482D01*
X153984072Y-102546000D01*
X153984072Y-101346000D01*
X160462122Y-101346000D01*
X160497552Y-101705723D01*
X160602479Y-102051622D01*
X160772871Y-102370404D01*
X161002181Y-102649819D01*
X161281596Y-102879129D01*
X161600378Y-103049521D01*
X161946277Y-103154448D01*
X162215861Y-103181000D01*
X162396139Y-103181000D01*
X162665723Y-103154448D01*
X163011622Y-103049521D01*
X163330404Y-102879129D01*
X163609819Y-102649819D01*
X163839129Y-102370404D01*
X163843621Y-102362000D01*
X165187160Y-102362000D01*
X169164001Y-106338842D01*
X169164000Y-108010782D01*
X169085820Y-108034498D01*
X168975506Y-108093463D01*
X168878815Y-108172815D01*
X168799463Y-108269506D01*
X168740498Y-108379820D01*
X168716034Y-108460466D01*
X168640269Y-108376412D01*
X168406920Y-108202359D01*
X168144099Y-108077175D01*
X167996890Y-108032524D01*
X167767000Y-108153845D01*
X167767000Y-109347000D01*
X167787000Y-109347000D01*
X167787000Y-109601000D01*
X167767000Y-109601000D01*
X167767000Y-110794155D01*
X167996890Y-110915476D01*
X168144099Y-110870825D01*
X168406920Y-110745641D01*
X168640269Y-110571588D01*
X168716034Y-110487534D01*
X168740498Y-110568180D01*
X168799463Y-110678494D01*
X168878815Y-110775185D01*
X168975506Y-110854537D01*
X169085820Y-110913502D01*
X169205518Y-110949812D01*
X169330000Y-110962072D01*
X171030000Y-110962072D01*
X171154482Y-110949812D01*
X171274180Y-110913502D01*
X171384494Y-110854537D01*
X171481185Y-110775185D01*
X171560537Y-110678494D01*
X171619502Y-110568180D01*
X171655812Y-110448482D01*
X171668072Y-110324000D01*
X171668072Y-108624000D01*
X171655812Y-108499518D01*
X171619502Y-108379820D01*
X171560537Y-108269506D01*
X171481185Y-108172815D01*
X171384494Y-108093463D01*
X171274180Y-108034498D01*
X171196000Y-108010782D01*
X171196000Y-105967893D01*
X171200914Y-105917999D01*
X171196000Y-105868105D01*
X171196000Y-105868098D01*
X171181298Y-105718829D01*
X171123202Y-105527313D01*
X171028860Y-105350810D01*
X170901896Y-105196104D01*
X170863133Y-105164292D01*
X166361712Y-100662872D01*
X166329896Y-100624104D01*
X166175190Y-100497140D01*
X165998687Y-100402798D01*
X165807171Y-100344702D01*
X165657902Y-100330000D01*
X165608000Y-100325085D01*
X165558098Y-100330000D01*
X163843621Y-100330000D01*
X163839129Y-100321596D01*
X163609819Y-100042181D01*
X163330404Y-99812871D01*
X163011622Y-99642479D01*
X162665723Y-99537552D01*
X162396139Y-99511000D01*
X162215861Y-99511000D01*
X161946277Y-99537552D01*
X161600378Y-99642479D01*
X161281596Y-99812871D01*
X161002181Y-100042181D01*
X160772871Y-100321596D01*
X160602479Y-100640378D01*
X160497552Y-100986277D01*
X160462122Y-101346000D01*
X153984072Y-101346000D01*
X153984072Y-100146000D01*
X153971812Y-100021518D01*
X153935502Y-99901820D01*
X153876537Y-99791506D01*
X153797185Y-99694815D01*
X153700494Y-99615463D01*
X153590180Y-99556498D01*
X153470482Y-99520188D01*
X153346000Y-99507928D01*
X150946000Y-99507928D01*
X150821518Y-99520188D01*
X150701820Y-99556498D01*
X150591506Y-99615463D01*
X150494815Y-99694815D01*
X150415463Y-99791506D01*
X150356498Y-99901820D01*
X150320188Y-100021518D01*
X150307928Y-100146000D01*
X125660000Y-100146000D01*
X125660000Y-80317740D01*
X134405000Y-80317740D01*
X134405000Y-80610260D01*
X134462068Y-80897158D01*
X134574010Y-81167411D01*
X134736525Y-81410632D01*
X134943368Y-81617475D01*
X135117760Y-81734000D01*
X134943368Y-81850525D01*
X134736525Y-82057368D01*
X134574010Y-82300589D01*
X134462068Y-82570842D01*
X134405000Y-82857740D01*
X134405000Y-83150260D01*
X134462068Y-83437158D01*
X134574010Y-83707411D01*
X134736525Y-83950632D01*
X134943368Y-84157475D01*
X135117760Y-84274000D01*
X134943368Y-84390525D01*
X134736525Y-84597368D01*
X134574010Y-84840589D01*
X134462068Y-85110842D01*
X134405000Y-85397740D01*
X134405000Y-85690260D01*
X134462068Y-85977158D01*
X134574010Y-86247411D01*
X134736525Y-86490632D01*
X134943368Y-86697475D01*
X135117760Y-86814000D01*
X134943368Y-86930525D01*
X134736525Y-87137368D01*
X134574010Y-87380589D01*
X134462068Y-87650842D01*
X134405000Y-87937740D01*
X134405000Y-88230260D01*
X134462068Y-88517158D01*
X134574010Y-88787411D01*
X134736525Y-89030632D01*
X134943368Y-89237475D01*
X135117760Y-89354000D01*
X134943368Y-89470525D01*
X134736525Y-89677368D01*
X134574010Y-89920589D01*
X134462068Y-90190842D01*
X134405000Y-90477740D01*
X134405000Y-90770260D01*
X134462068Y-91057158D01*
X134574010Y-91327411D01*
X134736525Y-91570632D01*
X134943368Y-91777475D01*
X135117760Y-91894000D01*
X134943368Y-92010525D01*
X134736525Y-92217368D01*
X134574010Y-92460589D01*
X134462068Y-92730842D01*
X134405000Y-93017740D01*
X134405000Y-93310260D01*
X134462068Y-93597158D01*
X134574010Y-93867411D01*
X134736525Y-94110632D01*
X134943368Y-94317475D01*
X135117760Y-94434000D01*
X134943368Y-94550525D01*
X134736525Y-94757368D01*
X134574010Y-95000589D01*
X134462068Y-95270842D01*
X134405000Y-95557740D01*
X134405000Y-95850260D01*
X134462068Y-96137158D01*
X134574010Y-96407411D01*
X134736525Y-96650632D01*
X134943368Y-96857475D01*
X135186589Y-97019990D01*
X135456842Y-97131932D01*
X135743740Y-97189000D01*
X136036260Y-97189000D01*
X136323158Y-97131932D01*
X136593411Y-97019990D01*
X136792946Y-96886665D01*
X150711000Y-96886665D01*
X150711000Y-97169335D01*
X150766147Y-97446574D01*
X150874320Y-97707727D01*
X151031363Y-97942759D01*
X151231241Y-98142637D01*
X151466273Y-98299680D01*
X151727426Y-98407853D01*
X152004665Y-98463000D01*
X152287335Y-98463000D01*
X152564574Y-98407853D01*
X152825727Y-98299680D01*
X153060759Y-98142637D01*
X153260637Y-97942759D01*
X153417680Y-97707727D01*
X153525853Y-97446574D01*
X153581000Y-97169335D01*
X153581000Y-96886665D01*
X153525853Y-96609426D01*
X153417680Y-96348273D01*
X153260637Y-96113241D01*
X153060759Y-95913363D01*
X152825727Y-95756320D01*
X152564574Y-95648147D01*
X152287335Y-95593000D01*
X152004665Y-95593000D01*
X151727426Y-95648147D01*
X151466273Y-95756320D01*
X151231241Y-95913363D01*
X151031363Y-96113241D01*
X150874320Y-96348273D01*
X150766147Y-96609426D01*
X150711000Y-96886665D01*
X136792946Y-96886665D01*
X136836632Y-96857475D01*
X137043475Y-96650632D01*
X137205990Y-96407411D01*
X137317932Y-96137158D01*
X137375000Y-95850260D01*
X137375000Y-95557740D01*
X137317932Y-95270842D01*
X137205990Y-95000589D01*
X137043475Y-94757368D01*
X136836632Y-94550525D01*
X136662240Y-94434000D01*
X136836632Y-94317475D01*
X137043475Y-94110632D01*
X137205990Y-93867411D01*
X137264564Y-93726000D01*
X141948577Y-93726000D01*
X141986000Y-93729686D01*
X142023423Y-93726000D01*
X142023426Y-93726000D01*
X142135378Y-93714974D01*
X142279015Y-93671402D01*
X142411392Y-93600645D01*
X142527422Y-93505422D01*
X142551284Y-93476346D01*
X149159630Y-86868000D01*
X150704057Y-86868000D01*
X150731764Y-87149309D01*
X150813818Y-87419808D01*
X150947068Y-87669101D01*
X151126392Y-87887608D01*
X151344899Y-88066932D01*
X151594192Y-88200182D01*
X151864691Y-88282236D01*
X152075508Y-88303000D01*
X152216492Y-88303000D01*
X152427309Y-88282236D01*
X152697808Y-88200182D01*
X152947101Y-88066932D01*
X153165608Y-87887608D01*
X153344932Y-87669101D01*
X153478182Y-87419808D01*
X153560236Y-87149309D01*
X153587943Y-86868000D01*
X153560236Y-86586691D01*
X153478182Y-86316192D01*
X153344932Y-86066899D01*
X153165608Y-85848392D01*
X152947101Y-85669068D01*
X152697808Y-85535818D01*
X152427309Y-85453764D01*
X152216492Y-85433000D01*
X152075508Y-85433000D01*
X151864691Y-85453764D01*
X151594192Y-85535818D01*
X151344899Y-85669068D01*
X151126392Y-85848392D01*
X150947068Y-86066899D01*
X150813818Y-86316192D01*
X150731764Y-86586691D01*
X150704057Y-86868000D01*
X149159630Y-86868000D01*
X152207630Y-83820000D01*
X155784057Y-83820000D01*
X155811764Y-84101309D01*
X155893818Y-84371808D01*
X156027068Y-84621101D01*
X156206392Y-84839608D01*
X156424899Y-85018932D01*
X156674192Y-85152182D01*
X156944691Y-85234236D01*
X157155508Y-85255000D01*
X157296492Y-85255000D01*
X157507309Y-85234236D01*
X157777808Y-85152182D01*
X158027101Y-85018932D01*
X158245608Y-84839608D01*
X158424932Y-84621101D01*
X158558182Y-84371808D01*
X158640236Y-84101309D01*
X158667943Y-83820000D01*
X158640236Y-83538691D01*
X158558182Y-83268192D01*
X158424932Y-83018899D01*
X158245608Y-82800392D01*
X158027101Y-82621068D01*
X157777808Y-82487818D01*
X157507309Y-82405764D01*
X157296492Y-82385000D01*
X157155508Y-82385000D01*
X156944691Y-82405764D01*
X156674192Y-82487818D01*
X156424899Y-82621068D01*
X156206392Y-82800392D01*
X156027068Y-83018899D01*
X155893818Y-83268192D01*
X155811764Y-83538691D01*
X155784057Y-83820000D01*
X152207630Y-83820000D01*
X152529353Y-83498278D01*
X152558422Y-83474422D01*
X152653645Y-83358392D01*
X152724402Y-83226015D01*
X152767974Y-83082378D01*
X152779000Y-82970426D01*
X152779000Y-82970424D01*
X152782686Y-82933001D01*
X152779000Y-82895578D01*
X152779000Y-80289115D01*
X152838690Y-80249232D01*
X153018232Y-80069690D01*
X153159297Y-79858570D01*
X153256465Y-79623987D01*
X153306000Y-79374955D01*
X153306000Y-79121045D01*
X153261887Y-78899269D01*
X155722336Y-78899269D01*
X155781797Y-79133037D01*
X156020242Y-79243934D01*
X156275740Y-79306183D01*
X156538473Y-79317390D01*
X156798344Y-79277125D01*
X157045366Y-79186935D01*
X157146203Y-79133037D01*
X157205664Y-78899269D01*
X156464000Y-78157605D01*
X155722336Y-78899269D01*
X153261887Y-78899269D01*
X153256465Y-78872013D01*
X153159297Y-78637430D01*
X153018232Y-78426310D01*
X152838690Y-78246768D01*
X152627570Y-78105703D01*
X152499063Y-78052473D01*
X155124610Y-78052473D01*
X155164875Y-78312344D01*
X155255065Y-78559366D01*
X155308963Y-78660203D01*
X155542731Y-78719664D01*
X156284395Y-77978000D01*
X156643605Y-77978000D01*
X157385269Y-78719664D01*
X157619037Y-78660203D01*
X157729934Y-78421758D01*
X157792183Y-78166260D01*
X157803390Y-77903527D01*
X157763125Y-77643656D01*
X157672935Y-77396634D01*
X157619037Y-77295797D01*
X157385269Y-77236336D01*
X156643605Y-77978000D01*
X156284395Y-77978000D01*
X155542731Y-77236336D01*
X155308963Y-77295797D01*
X155198066Y-77534242D01*
X155135817Y-77789740D01*
X155124610Y-78052473D01*
X152499063Y-78052473D01*
X152392987Y-78008535D01*
X152239476Y-77978000D01*
X152392987Y-77947465D01*
X152627570Y-77850297D01*
X152838690Y-77709232D01*
X153018232Y-77529690D01*
X153159297Y-77318570D01*
X153256465Y-77083987D01*
X153306000Y-76834955D01*
X153306000Y-76581045D01*
X153256465Y-76332013D01*
X153159297Y-76097430D01*
X153018232Y-75886310D01*
X152838690Y-75706768D01*
X152627570Y-75565703D01*
X152392987Y-75468535D01*
X152239476Y-75438000D01*
X152392987Y-75407465D01*
X152540134Y-75346514D01*
X155129000Y-75346514D01*
X155129000Y-75609486D01*
X155180304Y-75867405D01*
X155280939Y-76110359D01*
X155427038Y-76329013D01*
X155612987Y-76514962D01*
X155831641Y-76661061D01*
X155994118Y-76728361D01*
X155882634Y-76769065D01*
X155781797Y-76822963D01*
X155722336Y-77056731D01*
X156464000Y-77798395D01*
X157205664Y-77056731D01*
X157146203Y-76822963D01*
X156938596Y-76726408D01*
X157096359Y-76661061D01*
X157315013Y-76514962D01*
X157500962Y-76329013D01*
X157647061Y-76110359D01*
X157747696Y-75867405D01*
X157799000Y-75609486D01*
X157799000Y-75346514D01*
X157747696Y-75088595D01*
X157647061Y-74845641D01*
X157500962Y-74626987D01*
X157315013Y-74441038D01*
X157096359Y-74294939D01*
X156853405Y-74194304D01*
X156595486Y-74143000D01*
X156332514Y-74143000D01*
X156074595Y-74194304D01*
X155831641Y-74294939D01*
X155612987Y-74441038D01*
X155427038Y-74626987D01*
X155280939Y-74845641D01*
X155180304Y-75088595D01*
X155129000Y-75346514D01*
X152540134Y-75346514D01*
X152627570Y-75310297D01*
X152838690Y-75169232D01*
X153018232Y-74989690D01*
X153159297Y-74778570D01*
X153256465Y-74543987D01*
X153306000Y-74294955D01*
X153306000Y-74041045D01*
X153256465Y-73792013D01*
X153159297Y-73557430D01*
X153018232Y-73346310D01*
X152838690Y-73166768D01*
X152627570Y-73025703D01*
X152392987Y-72928535D01*
X152350440Y-72920072D01*
X152671000Y-72920072D01*
X152795482Y-72907812D01*
X152915180Y-72871502D01*
X153025494Y-72812537D01*
X153122185Y-72733185D01*
X153151273Y-72697740D01*
X159805000Y-72697740D01*
X159805000Y-72990260D01*
X159862068Y-73277158D01*
X159974010Y-73547411D01*
X160136525Y-73790632D01*
X160343368Y-73997475D01*
X160517760Y-74114000D01*
X160343368Y-74230525D01*
X160136525Y-74437368D01*
X159974010Y-74680589D01*
X159862068Y-74950842D01*
X159805000Y-75237740D01*
X159805000Y-75530260D01*
X159862068Y-75817158D01*
X159974010Y-76087411D01*
X160136525Y-76330632D01*
X160343368Y-76537475D01*
X160517760Y-76654000D01*
X160343368Y-76770525D01*
X160136525Y-76977368D01*
X159974010Y-77220589D01*
X159862068Y-77490842D01*
X159805000Y-77777740D01*
X159805000Y-78070260D01*
X159862068Y-78357158D01*
X159974010Y-78627411D01*
X160136525Y-78870632D01*
X160343368Y-79077475D01*
X160517760Y-79194000D01*
X160343368Y-79310525D01*
X160136525Y-79517368D01*
X159974010Y-79760589D01*
X159862068Y-80030842D01*
X159805000Y-80317740D01*
X159805000Y-80610260D01*
X159862068Y-80897158D01*
X159974010Y-81167411D01*
X160136525Y-81410632D01*
X160343368Y-81617475D01*
X160517760Y-81734000D01*
X160343368Y-81850525D01*
X160136525Y-82057368D01*
X159974010Y-82300589D01*
X159862068Y-82570842D01*
X159805000Y-82857740D01*
X159805000Y-83150260D01*
X159862068Y-83437158D01*
X159974010Y-83707411D01*
X160136525Y-83950632D01*
X160343368Y-84157475D01*
X160517760Y-84274000D01*
X160343368Y-84390525D01*
X160136525Y-84597368D01*
X159974010Y-84840589D01*
X159862068Y-85110842D01*
X159805000Y-85397740D01*
X159805000Y-85690260D01*
X159862068Y-85977158D01*
X159974010Y-86247411D01*
X160136525Y-86490632D01*
X160343368Y-86697475D01*
X160517760Y-86814000D01*
X160343368Y-86930525D01*
X160136525Y-87137368D01*
X159974010Y-87380589D01*
X159862068Y-87650842D01*
X159805000Y-87937740D01*
X159805000Y-88230260D01*
X159862068Y-88517158D01*
X159974010Y-88787411D01*
X160136525Y-89030632D01*
X160343368Y-89237475D01*
X160517760Y-89354000D01*
X160343368Y-89470525D01*
X160136525Y-89677368D01*
X159974010Y-89920589D01*
X159862068Y-90190842D01*
X159805000Y-90477740D01*
X159805000Y-90770260D01*
X159862068Y-91057158D01*
X159974010Y-91327411D01*
X160136525Y-91570632D01*
X160343368Y-91777475D01*
X160517760Y-91894000D01*
X160343368Y-92010525D01*
X160136525Y-92217368D01*
X159974010Y-92460589D01*
X159862068Y-92730842D01*
X159805000Y-93017740D01*
X159805000Y-93310260D01*
X159862068Y-93597158D01*
X159974010Y-93867411D01*
X160136525Y-94110632D01*
X160343368Y-94317475D01*
X160517760Y-94434000D01*
X160343368Y-94550525D01*
X160136525Y-94757368D01*
X159974010Y-95000589D01*
X159862068Y-95270842D01*
X159805000Y-95557740D01*
X159805000Y-95850260D01*
X159862068Y-96137158D01*
X159974010Y-96407411D01*
X160136525Y-96650632D01*
X160343368Y-96857475D01*
X160586589Y-97019990D01*
X160856842Y-97131932D01*
X161143740Y-97189000D01*
X161436260Y-97189000D01*
X161723158Y-97131932D01*
X161993411Y-97019990D01*
X162236632Y-96857475D01*
X162443475Y-96650632D01*
X162605990Y-96407411D01*
X162717932Y-96137158D01*
X162775000Y-95850260D01*
X162775000Y-95557740D01*
X162717932Y-95270842D01*
X162605990Y-95000589D01*
X162443475Y-94757368D01*
X162236632Y-94550525D01*
X162062240Y-94434000D01*
X162236632Y-94317475D01*
X162443475Y-94110632D01*
X162605990Y-93867411D01*
X162717932Y-93597158D01*
X162775000Y-93310260D01*
X162775000Y-93017740D01*
X162717932Y-92730842D01*
X162605990Y-92460589D01*
X162443475Y-92217368D01*
X162236632Y-92010525D01*
X162062240Y-91894000D01*
X162236632Y-91777475D01*
X162443475Y-91570632D01*
X162605990Y-91327411D01*
X162717932Y-91057158D01*
X162760332Y-90844000D01*
X165135928Y-90844000D01*
X165135928Y-92544000D01*
X165148188Y-92668482D01*
X165184498Y-92788180D01*
X165243463Y-92898494D01*
X165322815Y-92995185D01*
X165419506Y-93074537D01*
X165529820Y-93133502D01*
X165649518Y-93169812D01*
X165774000Y-93182072D01*
X167474000Y-93182072D01*
X167598482Y-93169812D01*
X167718180Y-93133502D01*
X167828494Y-93074537D01*
X167925185Y-92995185D01*
X168004537Y-92898494D01*
X168063502Y-92788180D01*
X168084393Y-92719313D01*
X168108866Y-92749134D01*
X168334986Y-92934706D01*
X168592966Y-93072599D01*
X168872889Y-93157513D01*
X169091050Y-93179000D01*
X169236950Y-93179000D01*
X169455111Y-93157513D01*
X169735034Y-93072599D01*
X169993014Y-92934706D01*
X170219134Y-92749134D01*
X170404706Y-92523014D01*
X170542599Y-92265034D01*
X170627513Y-91985111D01*
X170656185Y-91694000D01*
X170627513Y-91402889D01*
X170542599Y-91122966D01*
X170404706Y-90864986D01*
X170219134Y-90638866D01*
X169993014Y-90453294D01*
X169735034Y-90315401D01*
X169455111Y-90230487D01*
X169236950Y-90209000D01*
X169091050Y-90209000D01*
X168872889Y-90230487D01*
X168592966Y-90315401D01*
X168334986Y-90453294D01*
X168108866Y-90638866D01*
X168084393Y-90668687D01*
X168063502Y-90599820D01*
X168004537Y-90489506D01*
X167925185Y-90392815D01*
X167828494Y-90313463D01*
X167718180Y-90254498D01*
X167598482Y-90218188D01*
X167474000Y-90205928D01*
X165774000Y-90205928D01*
X165649518Y-90218188D01*
X165529820Y-90254498D01*
X165419506Y-90313463D01*
X165322815Y-90392815D01*
X165243463Y-90489506D01*
X165184498Y-90599820D01*
X165148188Y-90719518D01*
X165135928Y-90844000D01*
X162760332Y-90844000D01*
X162775000Y-90770260D01*
X162775000Y-90477740D01*
X162717932Y-90190842D01*
X162605990Y-89920589D01*
X162443475Y-89677368D01*
X162236632Y-89470525D01*
X162062240Y-89354000D01*
X162236632Y-89237475D01*
X162443475Y-89030632D01*
X162605990Y-88787411D01*
X162717932Y-88517158D01*
X162775000Y-88230260D01*
X162775000Y-87937740D01*
X162717932Y-87650842D01*
X162605990Y-87380589D01*
X162443475Y-87137368D01*
X162236632Y-86930525D01*
X162062240Y-86814000D01*
X162236632Y-86697475D01*
X162443475Y-86490632D01*
X162605990Y-86247411D01*
X162717932Y-85977158D01*
X162775000Y-85690260D01*
X162775000Y-85397740D01*
X162717932Y-85110842D01*
X162605990Y-84840589D01*
X162443475Y-84597368D01*
X162236632Y-84390525D01*
X162062240Y-84274000D01*
X162236632Y-84157475D01*
X162250107Y-84144000D01*
X165293928Y-84144000D01*
X165293928Y-86544000D01*
X165306188Y-86668482D01*
X165342498Y-86788180D01*
X165401463Y-86898494D01*
X165480815Y-86995185D01*
X165577506Y-87074537D01*
X165687820Y-87133502D01*
X165807518Y-87169812D01*
X165932000Y-87182072D01*
X168332000Y-87182072D01*
X168456482Y-87169812D01*
X168576180Y-87133502D01*
X168686494Y-87074537D01*
X168783185Y-86995185D01*
X168862537Y-86898494D01*
X168921502Y-86788180D01*
X168957812Y-86668482D01*
X168970072Y-86544000D01*
X168970072Y-84144000D01*
X168957812Y-84019518D01*
X168921502Y-83899820D01*
X168862537Y-83789506D01*
X168783185Y-83692815D01*
X168686494Y-83613463D01*
X168576180Y-83554498D01*
X168456482Y-83518188D01*
X168332000Y-83505928D01*
X165932000Y-83505928D01*
X165807518Y-83518188D01*
X165687820Y-83554498D01*
X165577506Y-83613463D01*
X165480815Y-83692815D01*
X165401463Y-83789506D01*
X165342498Y-83899820D01*
X165306188Y-84019518D01*
X165293928Y-84144000D01*
X162250107Y-84144000D01*
X162443475Y-83950632D01*
X162605990Y-83707411D01*
X162717932Y-83437158D01*
X162775000Y-83150260D01*
X162775000Y-82857740D01*
X162717932Y-82570842D01*
X162605990Y-82300589D01*
X162443475Y-82057368D01*
X162236632Y-81850525D01*
X162062240Y-81734000D01*
X162236632Y-81617475D01*
X162443475Y-81410632D01*
X162605990Y-81167411D01*
X162717932Y-80897158D01*
X162775000Y-80610260D01*
X162775000Y-80317740D01*
X162717932Y-80030842D01*
X162605990Y-79760589D01*
X162443475Y-79517368D01*
X162236632Y-79310525D01*
X162062240Y-79194000D01*
X162236632Y-79077475D01*
X162443475Y-78870632D01*
X162605990Y-78627411D01*
X162717932Y-78357158D01*
X162775000Y-78070260D01*
X162775000Y-77777740D01*
X162717932Y-77490842D01*
X162605990Y-77220589D01*
X162443475Y-76977368D01*
X162236632Y-76770525D01*
X162062240Y-76654000D01*
X162236632Y-76537475D01*
X162443475Y-76330632D01*
X162605990Y-76087411D01*
X162717932Y-75817158D01*
X162775000Y-75530260D01*
X162775000Y-75237740D01*
X162717932Y-74950842D01*
X162605990Y-74680589D01*
X162443475Y-74437368D01*
X162236632Y-74230525D01*
X162062240Y-74114000D01*
X162236632Y-73997475D01*
X162443475Y-73790632D01*
X162605990Y-73547411D01*
X162717932Y-73277158D01*
X162761961Y-73055806D01*
X165343801Y-73055806D01*
X165458500Y-73396754D01*
X165637511Y-73708774D01*
X165873954Y-73979875D01*
X166158743Y-74199639D01*
X166480934Y-74359621D01*
X166720195Y-74432195D01*
X167005000Y-74315432D01*
X167005000Y-72771000D01*
X167259000Y-72771000D01*
X167259000Y-74315432D01*
X167543805Y-74432195D01*
X167783066Y-74359621D01*
X168105257Y-74199639D01*
X168390046Y-73979875D01*
X168626489Y-73708774D01*
X168805500Y-73396754D01*
X168920199Y-73055806D01*
X168803854Y-72771000D01*
X167259000Y-72771000D01*
X167005000Y-72771000D01*
X165460146Y-72771000D01*
X165343801Y-73055806D01*
X162761961Y-73055806D01*
X162775000Y-72990260D01*
X162775000Y-72697740D01*
X162717932Y-72410842D01*
X162643934Y-72232194D01*
X165343801Y-72232194D01*
X165460146Y-72517000D01*
X167005000Y-72517000D01*
X167005000Y-70972568D01*
X167259000Y-70972568D01*
X167259000Y-72517000D01*
X168803854Y-72517000D01*
X168920199Y-72232194D01*
X168805500Y-71891246D01*
X168626489Y-71579226D01*
X168390046Y-71308125D01*
X168105257Y-71088361D01*
X167783066Y-70928379D01*
X167543805Y-70855805D01*
X167259000Y-70972568D01*
X167005000Y-70972568D01*
X166720195Y-70855805D01*
X166480934Y-70928379D01*
X166158743Y-71088361D01*
X165873954Y-71308125D01*
X165637511Y-71579226D01*
X165458500Y-71891246D01*
X165343801Y-72232194D01*
X162643934Y-72232194D01*
X162605990Y-72140589D01*
X162443475Y-71897368D01*
X162236632Y-71690525D01*
X161993411Y-71528010D01*
X161723158Y-71416068D01*
X161436260Y-71359000D01*
X161143740Y-71359000D01*
X160856842Y-71416068D01*
X160586589Y-71528010D01*
X160343368Y-71690525D01*
X160136525Y-71897368D01*
X159974010Y-72140589D01*
X159862068Y-72410842D01*
X159805000Y-72697740D01*
X153151273Y-72697740D01*
X153201537Y-72636494D01*
X153260502Y-72526180D01*
X153296812Y-72406482D01*
X153309072Y-72282000D01*
X153309072Y-70974000D01*
X153296812Y-70849518D01*
X153260502Y-70729820D01*
X153201537Y-70619506D01*
X153122185Y-70522815D01*
X153025494Y-70443463D01*
X152915180Y-70384498D01*
X152795482Y-70348188D01*
X152671000Y-70335928D01*
X151363000Y-70335928D01*
X151238518Y-70348188D01*
X151118820Y-70384498D01*
X151008506Y-70443463D01*
X150911815Y-70522815D01*
X150832463Y-70619506D01*
X150773498Y-70729820D01*
X150737188Y-70849518D01*
X150724928Y-70974000D01*
X150724928Y-72282000D01*
X150737188Y-72406482D01*
X150773498Y-72526180D01*
X150832463Y-72636494D01*
X150911815Y-72733185D01*
X151008506Y-72812537D01*
X151118820Y-72871502D01*
X151238518Y-72907812D01*
X151363000Y-72920072D01*
X151683560Y-72920072D01*
X151641013Y-72928535D01*
X151406430Y-73025703D01*
X151195310Y-73166768D01*
X151015768Y-73346310D01*
X150874703Y-73557430D01*
X150777535Y-73792013D01*
X150728000Y-74041045D01*
X150728000Y-74294955D01*
X150777535Y-74543987D01*
X150874703Y-74778570D01*
X151015768Y-74989690D01*
X151195310Y-75169232D01*
X151406430Y-75310297D01*
X151641013Y-75407465D01*
X151794524Y-75438000D01*
X151641013Y-75468535D01*
X151406430Y-75565703D01*
X151195310Y-75706768D01*
X151015768Y-75886310D01*
X150874703Y-76097430D01*
X150777535Y-76332013D01*
X150728000Y-76581045D01*
X150728000Y-76834955D01*
X150777535Y-77083987D01*
X150874703Y-77318570D01*
X151015768Y-77529690D01*
X151195310Y-77709232D01*
X151406430Y-77850297D01*
X151641013Y-77947465D01*
X151794524Y-77978000D01*
X151641013Y-78008535D01*
X151406430Y-78105703D01*
X151195310Y-78246768D01*
X151015768Y-78426310D01*
X150874703Y-78637430D01*
X150777535Y-78872013D01*
X150728000Y-79121045D01*
X150728000Y-79374955D01*
X150777535Y-79623987D01*
X150874703Y-79858570D01*
X151015768Y-80069690D01*
X151195310Y-80249232D01*
X151255001Y-80289116D01*
X151255000Y-82617369D01*
X141670370Y-92202000D01*
X137028107Y-92202000D01*
X136836632Y-92010525D01*
X136662240Y-91894000D01*
X136836632Y-91777475D01*
X137043475Y-91570632D01*
X137205990Y-91327411D01*
X137317932Y-91057158D01*
X137375000Y-90770260D01*
X137375000Y-90477740D01*
X137317932Y-90190842D01*
X137205990Y-89920589D01*
X137043475Y-89677368D01*
X136836632Y-89470525D01*
X136662240Y-89354000D01*
X136836632Y-89237475D01*
X137043475Y-89030632D01*
X137205990Y-88787411D01*
X137317932Y-88517158D01*
X137375000Y-88230260D01*
X137375000Y-87937740D01*
X137345468Y-87789269D01*
X140736336Y-87789269D01*
X140795797Y-88023037D01*
X141034242Y-88133934D01*
X141289740Y-88196183D01*
X141552473Y-88207390D01*
X141812344Y-88167125D01*
X142059366Y-88076935D01*
X142160203Y-88023037D01*
X142219664Y-87789269D01*
X141478000Y-87047605D01*
X140736336Y-87789269D01*
X137345468Y-87789269D01*
X137317932Y-87650842D01*
X137205990Y-87380589D01*
X137043475Y-87137368D01*
X136848580Y-86942473D01*
X140138610Y-86942473D01*
X140178875Y-87202344D01*
X140269065Y-87449366D01*
X140322963Y-87550203D01*
X140556731Y-87609664D01*
X141298395Y-86868000D01*
X141657605Y-86868000D01*
X142399269Y-87609664D01*
X142633037Y-87550203D01*
X142743934Y-87311758D01*
X142806183Y-87056260D01*
X142817390Y-86793527D01*
X142777125Y-86533656D01*
X142686935Y-86286634D01*
X142633037Y-86185797D01*
X142399269Y-86126336D01*
X141657605Y-86868000D01*
X141298395Y-86868000D01*
X140556731Y-86126336D01*
X140322963Y-86185797D01*
X140212066Y-86424242D01*
X140149817Y-86679740D01*
X140138610Y-86942473D01*
X136848580Y-86942473D01*
X136836632Y-86930525D01*
X136662240Y-86814000D01*
X136836632Y-86697475D01*
X137043475Y-86490632D01*
X137205990Y-86247411D01*
X137317932Y-85977158D01*
X137375000Y-85690260D01*
X137375000Y-85397740D01*
X137317932Y-85110842D01*
X137205990Y-84840589D01*
X137043475Y-84597368D01*
X136836632Y-84390525D01*
X136662240Y-84274000D01*
X136718341Y-84236514D01*
X140143000Y-84236514D01*
X140143000Y-84499486D01*
X140194304Y-84757405D01*
X140294939Y-85000359D01*
X140441038Y-85219013D01*
X140626987Y-85404962D01*
X140845641Y-85551061D01*
X141008118Y-85618361D01*
X140896634Y-85659065D01*
X140795797Y-85712963D01*
X140736336Y-85946731D01*
X141478000Y-86688395D01*
X142219664Y-85946731D01*
X142160203Y-85712963D01*
X141952596Y-85616408D01*
X142110359Y-85551061D01*
X142329013Y-85404962D01*
X142514962Y-85219013D01*
X142661061Y-85000359D01*
X142761696Y-84757405D01*
X142813000Y-84499486D01*
X142813000Y-84236514D01*
X142761696Y-83978595D01*
X142661061Y-83735641D01*
X142514962Y-83516987D01*
X142329013Y-83331038D01*
X142110359Y-83184939D01*
X141867405Y-83084304D01*
X141609486Y-83033000D01*
X141346514Y-83033000D01*
X141088595Y-83084304D01*
X140845641Y-83184939D01*
X140626987Y-83331038D01*
X140441038Y-83516987D01*
X140294939Y-83735641D01*
X140194304Y-83978595D01*
X140143000Y-84236514D01*
X136718341Y-84236514D01*
X136836632Y-84157475D01*
X137043475Y-83950632D01*
X137205990Y-83707411D01*
X137317932Y-83437158D01*
X137375000Y-83150260D01*
X137375000Y-82857740D01*
X137317932Y-82570842D01*
X137205990Y-82300589D01*
X137043475Y-82057368D01*
X136836632Y-81850525D01*
X136662240Y-81734000D01*
X136836632Y-81617475D01*
X137043475Y-81410632D01*
X137205990Y-81167411D01*
X137317932Y-80897158D01*
X137375000Y-80610260D01*
X137375000Y-80317740D01*
X137317932Y-80030842D01*
X137205990Y-79760589D01*
X137043475Y-79517368D01*
X136836632Y-79310525D01*
X136663271Y-79194689D01*
X136738792Y-78952397D01*
X135890000Y-78103605D01*
X135041208Y-78952397D01*
X135116729Y-79194689D01*
X134943368Y-79310525D01*
X134736525Y-79517368D01*
X134574010Y-79760589D01*
X134462068Y-80030842D01*
X134405000Y-80317740D01*
X125660000Y-80317740D01*
X125660000Y-77992531D01*
X134399389Y-77992531D01*
X134441401Y-78282019D01*
X134539081Y-78557747D01*
X134612528Y-78695157D01*
X134861603Y-78772792D01*
X135710395Y-77924000D01*
X136069605Y-77924000D01*
X136918397Y-78772792D01*
X137167472Y-78695157D01*
X137293371Y-78431117D01*
X137365339Y-78147589D01*
X137380611Y-77855469D01*
X137338599Y-77565981D01*
X137240919Y-77290253D01*
X137167472Y-77152843D01*
X136918397Y-77075208D01*
X136069605Y-77924000D01*
X135710395Y-77924000D01*
X134861603Y-77075208D01*
X134612528Y-77152843D01*
X134486629Y-77416883D01*
X134414661Y-77700411D01*
X134399389Y-77992531D01*
X125660000Y-77992531D01*
X125660000Y-72697740D01*
X134405000Y-72697740D01*
X134405000Y-72990260D01*
X134462068Y-73277158D01*
X134574010Y-73547411D01*
X134736525Y-73790632D01*
X134943368Y-73997475D01*
X135117760Y-74114000D01*
X134943368Y-74230525D01*
X134736525Y-74437368D01*
X134574010Y-74680589D01*
X134462068Y-74950842D01*
X134405000Y-75237740D01*
X134405000Y-75530260D01*
X134462068Y-75817158D01*
X134574010Y-76087411D01*
X134736525Y-76330632D01*
X134943368Y-76537475D01*
X135116729Y-76653311D01*
X135041208Y-76895603D01*
X135890000Y-77744395D01*
X136738792Y-76895603D01*
X136663271Y-76653311D01*
X136836632Y-76537475D01*
X137043475Y-76330632D01*
X137147585Y-76174820D01*
X141605000Y-80632236D01*
X141605001Y-81236331D01*
X141600700Y-81280000D01*
X141617864Y-81454274D01*
X141668698Y-81621852D01*
X141751248Y-81776291D01*
X141862342Y-81911659D01*
X141896259Y-81939494D01*
X144374506Y-84417742D01*
X144402341Y-84451659D01*
X144537709Y-84562753D01*
X144692149Y-84645303D01*
X144758058Y-84665296D01*
X144859724Y-84696136D01*
X144892924Y-84699406D01*
X144990333Y-84709000D01*
X144990339Y-84709000D01*
X145033999Y-84713300D01*
X145077659Y-84709000D01*
X145934151Y-84709000D01*
X145951363Y-84734759D01*
X146151241Y-84934637D01*
X146386273Y-85091680D01*
X146647426Y-85199853D01*
X146924665Y-85255000D01*
X147207335Y-85255000D01*
X147484574Y-85199853D01*
X147745727Y-85091680D01*
X147980759Y-84934637D01*
X148180637Y-84734759D01*
X148337680Y-84499727D01*
X148445853Y-84238574D01*
X148501000Y-83961335D01*
X148501000Y-83678665D01*
X148445853Y-83401426D01*
X148337680Y-83140273D01*
X148180637Y-82905241D01*
X147980759Y-82705363D01*
X147745727Y-82548320D01*
X147484574Y-82440147D01*
X147207335Y-82385000D01*
X146924665Y-82385000D01*
X146647426Y-82440147D01*
X146386273Y-82548320D01*
X146151241Y-82705363D01*
X145951363Y-82905241D01*
X145934151Y-82931000D01*
X145402236Y-82931000D01*
X143383000Y-80911765D01*
X143383000Y-80307660D01*
X143387300Y-80264000D01*
X143383000Y-80220340D01*
X143383000Y-80220333D01*
X143380424Y-80194184D01*
X143438219Y-80136389D01*
X143492093Y-80365468D01*
X143722684Y-80471763D01*
X143969581Y-80531028D01*
X144223296Y-80540988D01*
X144474079Y-80501259D01*
X144712293Y-80413368D01*
X144801907Y-80365468D01*
X144855782Y-80136387D01*
X144147000Y-79427605D01*
X144132858Y-79441748D01*
X143953253Y-79262143D01*
X143967395Y-79248000D01*
X144326605Y-79248000D01*
X145035387Y-79956782D01*
X145264468Y-79902907D01*
X145370763Y-79672316D01*
X145430028Y-79425419D01*
X145439988Y-79171704D01*
X145400259Y-78920921D01*
X145312368Y-78682707D01*
X145264468Y-78593093D01*
X145035387Y-78539218D01*
X144326605Y-79248000D01*
X143967395Y-79248000D01*
X143258613Y-78539218D01*
X143029532Y-78593093D01*
X142923237Y-78823684D01*
X142863972Y-79070581D01*
X142854012Y-79324296D01*
X142862008Y-79374773D01*
X138073499Y-74586264D01*
X138045659Y-74552341D01*
X137910291Y-74441247D01*
X137755851Y-74358697D01*
X137588274Y-74307864D01*
X137457667Y-74295000D01*
X137457660Y-74295000D01*
X137414000Y-74290700D01*
X137370340Y-74295000D01*
X136901107Y-74295000D01*
X136836632Y-74230525D01*
X136662240Y-74114000D01*
X136836632Y-73997475D01*
X137043475Y-73790632D01*
X137205990Y-73547411D01*
X137317932Y-73277158D01*
X137375000Y-72990260D01*
X137375000Y-72697740D01*
X137317932Y-72410842D01*
X137205990Y-72140589D01*
X137043475Y-71897368D01*
X136836632Y-71690525D01*
X136593411Y-71528010D01*
X136528312Y-71501045D01*
X142858000Y-71501045D01*
X142858000Y-71754955D01*
X142907535Y-72003987D01*
X143004703Y-72238570D01*
X143145768Y-72449690D01*
X143325310Y-72629232D01*
X143536430Y-72770297D01*
X143771013Y-72867465D01*
X143924524Y-72898000D01*
X143771013Y-72928535D01*
X143536430Y-73025703D01*
X143325310Y-73166768D01*
X143145768Y-73346310D01*
X143004703Y-73557430D01*
X142907535Y-73792013D01*
X142858000Y-74041045D01*
X142858000Y-74294955D01*
X142907535Y-74543987D01*
X143004703Y-74778570D01*
X143145768Y-74989690D01*
X143325310Y-75169232D01*
X143536430Y-75310297D01*
X143771013Y-75407465D01*
X143924524Y-75438000D01*
X143771013Y-75468535D01*
X143536430Y-75565703D01*
X143325310Y-75706768D01*
X143145768Y-75886310D01*
X143004703Y-76097430D01*
X142907535Y-76332013D01*
X142858000Y-76581045D01*
X142858000Y-76834955D01*
X142907535Y-77083987D01*
X143004703Y-77318570D01*
X143145768Y-77529690D01*
X143325310Y-77709232D01*
X143536430Y-77850297D01*
X143771013Y-77947465D01*
X143924999Y-77978094D01*
X143819921Y-77994741D01*
X143581707Y-78082632D01*
X143492093Y-78130532D01*
X143438218Y-78359613D01*
X144147000Y-79068395D01*
X144855782Y-78359613D01*
X144801907Y-78130532D01*
X144571316Y-78024237D01*
X144374516Y-77976997D01*
X144522987Y-77947465D01*
X144757570Y-77850297D01*
X144968690Y-77709232D01*
X145148232Y-77529690D01*
X145289297Y-77318570D01*
X145386465Y-77083987D01*
X145436000Y-76834955D01*
X145436000Y-76581045D01*
X145386465Y-76332013D01*
X145289297Y-76097430D01*
X145148232Y-75886310D01*
X144968690Y-75706768D01*
X144757570Y-75565703D01*
X144522987Y-75468535D01*
X144369476Y-75438000D01*
X144522987Y-75407465D01*
X144757570Y-75310297D01*
X144968690Y-75169232D01*
X145148232Y-74989690D01*
X145289297Y-74778570D01*
X145386465Y-74543987D01*
X145436000Y-74294955D01*
X145436000Y-74041045D01*
X145386465Y-73792013D01*
X145289297Y-73557430D01*
X145148232Y-73346310D01*
X144968690Y-73166768D01*
X144757570Y-73025703D01*
X144522987Y-72928535D01*
X144369476Y-72898000D01*
X144522987Y-72867465D01*
X144757570Y-72770297D01*
X144968690Y-72629232D01*
X145148232Y-72449690D01*
X145289297Y-72238570D01*
X145386465Y-72003987D01*
X145436000Y-71754955D01*
X145436000Y-71501045D01*
X145386465Y-71252013D01*
X145289297Y-71017430D01*
X145148232Y-70806310D01*
X144968690Y-70626768D01*
X144757570Y-70485703D01*
X144522987Y-70388535D01*
X144273955Y-70339000D01*
X144020045Y-70339000D01*
X143771013Y-70388535D01*
X143536430Y-70485703D01*
X143325310Y-70626768D01*
X143145768Y-70806310D01*
X143004703Y-71017430D01*
X142907535Y-71252013D01*
X142858000Y-71501045D01*
X136528312Y-71501045D01*
X136323158Y-71416068D01*
X136036260Y-71359000D01*
X135743740Y-71359000D01*
X135456842Y-71416068D01*
X135186589Y-71528010D01*
X134943368Y-71690525D01*
X134736525Y-71897368D01*
X134574010Y-72140589D01*
X134462068Y-72410842D01*
X134405000Y-72697740D01*
X125660000Y-72697740D01*
X125660000Y-65468702D01*
X148030903Y-65468702D01*
X148102486Y-65712671D01*
X148357996Y-65833571D01*
X148632184Y-65902300D01*
X148914512Y-65916217D01*
X149194130Y-65874787D01*
X149460292Y-65779603D01*
X149585514Y-65712671D01*
X149657097Y-65468702D01*
X148844000Y-64655605D01*
X148030903Y-65468702D01*
X125660000Y-65468702D01*
X125660000Y-64546512D01*
X147403783Y-64546512D01*
X147445213Y-64826130D01*
X147540397Y-65092292D01*
X147607329Y-65217514D01*
X147851298Y-65289097D01*
X148664395Y-64476000D01*
X149023605Y-64476000D01*
X149836702Y-65289097D01*
X150080671Y-65217514D01*
X150201571Y-64962004D01*
X150270300Y-64687816D01*
X150284217Y-64405488D01*
X150242787Y-64125870D01*
X150147603Y-63859708D01*
X150080671Y-63734486D01*
X149836702Y-63662903D01*
X149023605Y-64476000D01*
X148664395Y-64476000D01*
X147851298Y-63662903D01*
X147607329Y-63734486D01*
X147486429Y-63989996D01*
X147417700Y-64264184D01*
X147403783Y-64546512D01*
X125660000Y-64546512D01*
X125660000Y-61176000D01*
X147405928Y-61176000D01*
X147405928Y-62776000D01*
X147418188Y-62900482D01*
X147454498Y-63020180D01*
X147513463Y-63130494D01*
X147592815Y-63227185D01*
X147689506Y-63306537D01*
X147799820Y-63365502D01*
X147919518Y-63401812D01*
X148044000Y-63414072D01*
X148051215Y-63414072D01*
X148030903Y-63483298D01*
X148844000Y-64296395D01*
X149657097Y-63483298D01*
X149636785Y-63414072D01*
X149644000Y-63414072D01*
X149768482Y-63401812D01*
X149888180Y-63365502D01*
X149998494Y-63306537D01*
X150095185Y-63227185D01*
X150174537Y-63130494D01*
X150233502Y-63020180D01*
X150269812Y-62900482D01*
X150282072Y-62776000D01*
X150282072Y-62554000D01*
X159197928Y-62554000D01*
X159197928Y-64954000D01*
X159210188Y-65078482D01*
X159246498Y-65198180D01*
X159305463Y-65308494D01*
X159384815Y-65405185D01*
X159481506Y-65484537D01*
X159591820Y-65543502D01*
X159711518Y-65579812D01*
X159836000Y-65592072D01*
X162236000Y-65592072D01*
X162360482Y-65579812D01*
X162480180Y-65543502D01*
X162590494Y-65484537D01*
X162687185Y-65405185D01*
X162766537Y-65308494D01*
X162825502Y-65198180D01*
X162861812Y-65078482D01*
X162874072Y-64954000D01*
X162874072Y-63754000D01*
X169352122Y-63754000D01*
X169387552Y-64113723D01*
X169492479Y-64459622D01*
X169662871Y-64778404D01*
X169892181Y-65057819D01*
X170171596Y-65287129D01*
X170490378Y-65457521D01*
X170836277Y-65562448D01*
X171105861Y-65589000D01*
X171286139Y-65589000D01*
X171555723Y-65562448D01*
X171901622Y-65457521D01*
X172220404Y-65287129D01*
X172499819Y-65057819D01*
X172729129Y-64778404D01*
X172899521Y-64459622D01*
X173004448Y-64113723D01*
X173039878Y-63754000D01*
X173004448Y-63394277D01*
X172899521Y-63048378D01*
X172729129Y-62729596D01*
X172499819Y-62450181D01*
X172220404Y-62220871D01*
X171901622Y-62050479D01*
X171555723Y-61945552D01*
X171286139Y-61919000D01*
X171105861Y-61919000D01*
X170836277Y-61945552D01*
X170490378Y-62050479D01*
X170171596Y-62220871D01*
X169892181Y-62450181D01*
X169662871Y-62729596D01*
X169492479Y-63048378D01*
X169387552Y-63394277D01*
X169352122Y-63754000D01*
X162874072Y-63754000D01*
X162874072Y-62554000D01*
X162861812Y-62429518D01*
X162825502Y-62309820D01*
X162766537Y-62199506D01*
X162687185Y-62102815D01*
X162590494Y-62023463D01*
X162480180Y-61964498D01*
X162360482Y-61928188D01*
X162236000Y-61915928D01*
X159836000Y-61915928D01*
X159711518Y-61928188D01*
X159591820Y-61964498D01*
X159481506Y-62023463D01*
X159384815Y-62102815D01*
X159305463Y-62199506D01*
X159246498Y-62309820D01*
X159210188Y-62429518D01*
X159197928Y-62554000D01*
X150282072Y-62554000D01*
X150282072Y-61176000D01*
X150269812Y-61051518D01*
X150233502Y-60931820D01*
X150174537Y-60821506D01*
X150095185Y-60724815D01*
X149998494Y-60645463D01*
X149888180Y-60586498D01*
X149768482Y-60550188D01*
X149644000Y-60537928D01*
X148044000Y-60537928D01*
X147919518Y-60550188D01*
X147799820Y-60586498D01*
X147689506Y-60645463D01*
X147592815Y-60724815D01*
X147513463Y-60821506D01*
X147454498Y-60931820D01*
X147418188Y-61051518D01*
X147405928Y-61176000D01*
X125660000Y-61176000D01*
X125660000Y-59548665D01*
X155537000Y-59548665D01*
X155537000Y-59831335D01*
X155592147Y-60108574D01*
X155700320Y-60369727D01*
X155857363Y-60604759D01*
X156057241Y-60804637D01*
X156292273Y-60961680D01*
X156553426Y-61069853D01*
X156830665Y-61125000D01*
X157113335Y-61125000D01*
X157390574Y-61069853D01*
X157651727Y-60961680D01*
X157886759Y-60804637D01*
X158086637Y-60604759D01*
X158243680Y-60369727D01*
X158351853Y-60108574D01*
X158407000Y-59831335D01*
X158407000Y-59548665D01*
X158351853Y-59271426D01*
X158243680Y-59010273D01*
X158086637Y-58775241D01*
X157886759Y-58575363D01*
X157651727Y-58418320D01*
X157390574Y-58310147D01*
X157113335Y-58255000D01*
X156830665Y-58255000D01*
X156553426Y-58310147D01*
X156292273Y-58418320D01*
X156057241Y-58575363D01*
X155857363Y-58775241D01*
X155700320Y-59010273D01*
X155592147Y-59271426D01*
X155537000Y-59548665D01*
X125660000Y-59548665D01*
X125660000Y-54498122D01*
X136994825Y-54498122D01*
X137059425Y-54711094D01*
X137209469Y-55016329D01*
X137416178Y-55286427D01*
X137671609Y-55511008D01*
X137965946Y-55681442D01*
X138287877Y-55791179D01*
X138557000Y-55673600D01*
X138557000Y-54229000D01*
X138811000Y-54229000D01*
X138811000Y-55673600D01*
X139080123Y-55791179D01*
X139402054Y-55681442D01*
X139696391Y-55511008D01*
X139951822Y-55286427D01*
X140158531Y-55016329D01*
X140308575Y-54711094D01*
X140373175Y-54498122D01*
X140255125Y-54229000D01*
X138811000Y-54229000D01*
X138557000Y-54229000D01*
X137112875Y-54229000D01*
X136994825Y-54498122D01*
X125660000Y-54498122D01*
X125660000Y-53705878D01*
X136994825Y-53705878D01*
X137112875Y-53975000D01*
X138557000Y-53975000D01*
X138557000Y-52530400D01*
X138811000Y-52530400D01*
X138811000Y-53975000D01*
X140255125Y-53975000D01*
X140373175Y-53705878D01*
X140308575Y-53492906D01*
X140158531Y-53187671D01*
X140016435Y-53002000D01*
X144565928Y-53002000D01*
X144565928Y-55202000D01*
X144578188Y-55326482D01*
X144614498Y-55446180D01*
X144673463Y-55556494D01*
X144752815Y-55653185D01*
X144849506Y-55732537D01*
X144959820Y-55791502D01*
X145079518Y-55827812D01*
X145204000Y-55840072D01*
X147404000Y-55840072D01*
X147528482Y-55827812D01*
X147648180Y-55791502D01*
X147758494Y-55732537D01*
X147855185Y-55653185D01*
X147934537Y-55556494D01*
X147993502Y-55446180D01*
X148029812Y-55326482D01*
X148042072Y-55202000D01*
X148042072Y-53002000D01*
X148029812Y-52877518D01*
X147993502Y-52757820D01*
X147934537Y-52647506D01*
X147855185Y-52550815D01*
X147758494Y-52471463D01*
X147648180Y-52412498D01*
X147528482Y-52376188D01*
X147404000Y-52363928D01*
X145204000Y-52363928D01*
X145079518Y-52376188D01*
X144959820Y-52412498D01*
X144849506Y-52471463D01*
X144752815Y-52550815D01*
X144673463Y-52647506D01*
X144614498Y-52757820D01*
X144578188Y-52877518D01*
X144565928Y-53002000D01*
X140016435Y-53002000D01*
X139951822Y-52917573D01*
X139696391Y-52692992D01*
X139402054Y-52522558D01*
X139080123Y-52412821D01*
X138811000Y-52530400D01*
X138557000Y-52530400D01*
X138287877Y-52412821D01*
X137965946Y-52522558D01*
X137671609Y-52692992D01*
X137416178Y-52917573D01*
X137209469Y-53187671D01*
X137059425Y-53492906D01*
X136994825Y-53705878D01*
X125660000Y-53705878D01*
X125660000Y-48293872D01*
X126289000Y-48293872D01*
X126289000Y-48734128D01*
X126374890Y-49165925D01*
X126543369Y-49572669D01*
X126787962Y-49938729D01*
X127099271Y-50250038D01*
X127465331Y-50494631D01*
X127872075Y-50663110D01*
X128303872Y-50749000D01*
X128744128Y-50749000D01*
X129175925Y-50663110D01*
X129582669Y-50494631D01*
X129948729Y-50250038D01*
X130260038Y-49938729D01*
X130504631Y-49572669D01*
X130522305Y-49530000D01*
X155530057Y-49530000D01*
X155557764Y-49811309D01*
X155639818Y-50081808D01*
X155773068Y-50331101D01*
X155952392Y-50549608D01*
X156170899Y-50728932D01*
X156420192Y-50862182D01*
X156690691Y-50944236D01*
X156901508Y-50965000D01*
X157042492Y-50965000D01*
X157253309Y-50944236D01*
X157523808Y-50862182D01*
X157773101Y-50728932D01*
X157991608Y-50549608D01*
X158170932Y-50331101D01*
X158304182Y-50081808D01*
X158386236Y-49811309D01*
X158413943Y-49530000D01*
X158386236Y-49248691D01*
X158304182Y-48978192D01*
X158170932Y-48728899D01*
X157991608Y-48510392D01*
X157773101Y-48331068D01*
X157703513Y-48293872D01*
X174295000Y-48293872D01*
X174295000Y-48734128D01*
X174380890Y-49165925D01*
X174549369Y-49572669D01*
X174793962Y-49938729D01*
X175105271Y-50250038D01*
X175471331Y-50494631D01*
X175878075Y-50663110D01*
X176309872Y-50749000D01*
X176750128Y-50749000D01*
X177181925Y-50663110D01*
X177588669Y-50494631D01*
X177954729Y-50250038D01*
X178266038Y-49938729D01*
X178510631Y-49572669D01*
X178679110Y-49165925D01*
X178765000Y-48734128D01*
X178765000Y-48293872D01*
X178679110Y-47862075D01*
X178510631Y-47455331D01*
X178266038Y-47089271D01*
X177954729Y-46777962D01*
X177588669Y-46533369D01*
X177181925Y-46364890D01*
X176750128Y-46279000D01*
X176309872Y-46279000D01*
X175878075Y-46364890D01*
X175471331Y-46533369D01*
X175105271Y-46777962D01*
X174793962Y-47089271D01*
X174549369Y-47455331D01*
X174380890Y-47862075D01*
X174295000Y-48293872D01*
X157703513Y-48293872D01*
X157523808Y-48197818D01*
X157253309Y-48115764D01*
X157042492Y-48095000D01*
X156901508Y-48095000D01*
X156690691Y-48115764D01*
X156420192Y-48197818D01*
X156170899Y-48331068D01*
X155952392Y-48510392D01*
X155773068Y-48728899D01*
X155639818Y-48978192D01*
X155557764Y-49248691D01*
X155530057Y-49530000D01*
X130522305Y-49530000D01*
X130673110Y-49165925D01*
X130759000Y-48734128D01*
X130759000Y-48293872D01*
X130673110Y-47862075D01*
X130504631Y-47455331D01*
X130260038Y-47089271D01*
X129948729Y-46777962D01*
X129582669Y-46533369D01*
X129175925Y-46364890D01*
X128744128Y-46279000D01*
X128303872Y-46279000D01*
X127872075Y-46364890D01*
X127465331Y-46533369D01*
X127099271Y-46777962D01*
X126787962Y-47089271D01*
X126543369Y-47455331D01*
X126374890Y-47862075D01*
X126289000Y-48293872D01*
X125660000Y-48293872D01*
X125660000Y-45660000D01*
X179340000Y-45660000D01*
X179340001Y-119340000D01*
X179340001Y-119340000D01*
G37*
X179340001Y-119340000D02*
X125660000Y-119340000D01*
X125660000Y-116111872D01*
X126289000Y-116111872D01*
X126289000Y-116552128D01*
X126374890Y-116983925D01*
X126543369Y-117390669D01*
X126787962Y-117756729D01*
X127099271Y-118068038D01*
X127465331Y-118312631D01*
X127872075Y-118481110D01*
X128303872Y-118567000D01*
X128744128Y-118567000D01*
X129175925Y-118481110D01*
X129582669Y-118312631D01*
X129948729Y-118068038D01*
X130260038Y-117756729D01*
X130504631Y-117390669D01*
X130673110Y-116983925D01*
X130759000Y-116552128D01*
X130759000Y-116111872D01*
X130673110Y-115680075D01*
X130504631Y-115273331D01*
X130260038Y-114907271D01*
X129948729Y-114595962D01*
X129582669Y-114351369D01*
X129175925Y-114182890D01*
X128744128Y-114097000D01*
X128303872Y-114097000D01*
X127872075Y-114182890D01*
X127465331Y-114351369D01*
X127099271Y-114595962D01*
X126787962Y-114907271D01*
X126543369Y-115273331D01*
X126374890Y-115680075D01*
X126289000Y-116111872D01*
X125660000Y-116111872D01*
X125660000Y-113348475D01*
X133503000Y-113348475D01*
X133503000Y-113867525D01*
X133604261Y-114376601D01*
X133802893Y-114856141D01*
X134091262Y-115287715D01*
X134458285Y-115654738D01*
X134889859Y-115943107D01*
X135369399Y-116141739D01*
X135878475Y-116243000D01*
X136397525Y-116243000D01*
X136906601Y-116141739D01*
X137386141Y-115943107D01*
X137817715Y-115654738D01*
X138184738Y-115287715D01*
X138452711Y-114886665D01*
X143048000Y-114886665D01*
X143048000Y-115169335D01*
X143103147Y-115446574D01*
X143211320Y-115707727D01*
X143368363Y-115942759D01*
X143568241Y-116142637D01*
X143803273Y-116299680D01*
X144064426Y-116407853D01*
X144341665Y-116463000D01*
X144624335Y-116463000D01*
X144901574Y-116407853D01*
X145162727Y-116299680D01*
X145397759Y-116142637D01*
X145597637Y-115942759D01*
X145754680Y-115707727D01*
X145862853Y-115446574D01*
X145868000Y-115420699D01*
X145873147Y-115446574D01*
X145981320Y-115707727D01*
X146138363Y-115942759D01*
X146338241Y-116142637D01*
X146573273Y-116299680D01*
X146834426Y-116407853D01*
X147111665Y-116463000D01*
X147394335Y-116463000D01*
X147671574Y-116407853D01*
X147932727Y-116299680D01*
X148167759Y-116142637D01*
X148367637Y-115942759D01*
X148524680Y-115707727D01*
X148632853Y-115446574D01*
X148638000Y-115420699D01*
X148643147Y-115446574D01*
X148751320Y-115707727D01*
X148908363Y-115942759D01*
X149108241Y-116142637D01*
X149343273Y-116299680D01*
X149604426Y-116407853D01*
X149881665Y-116463000D01*
X150164335Y-116463000D01*
X150441574Y-116407853D01*
X150702727Y-116299680D01*
X150937759Y-116142637D01*
X151137637Y-115942759D01*
X151294680Y-115707727D01*
X151402853Y-115446574D01*
X151408000Y-115420699D01*
X151413147Y-115446574D01*
X151521320Y-115707727D01*
X151678363Y-115942759D01*
X151878241Y-116142637D01*
X152113273Y-116299680D01*
X152374426Y-116407853D01*
X152651665Y-116463000D01*
X152934335Y-116463000D01*
X153211574Y-116407853D01*
X153472727Y-116299680D01*
X153707759Y-116142637D01*
X153907637Y-115942759D01*
X154064680Y-115707727D01*
X154172853Y-115446574D01*
X154228000Y-115169335D01*
X154228000Y-114886665D01*
X154172853Y-114609426D01*
X154064680Y-114348273D01*
X153907637Y-114113241D01*
X153707759Y-113913363D01*
X153472727Y-113756320D01*
X153211574Y-113648147D01*
X152934335Y-113593000D01*
X152651665Y-113593000D01*
X152374426Y-113648147D01*
X152113273Y-113756320D01*
X151878241Y-113913363D01*
X151678363Y-114113241D01*
X151521320Y-114348273D01*
X151413147Y-114609426D01*
X151408000Y-114635301D01*
X151402853Y-114609426D01*
X151294680Y-114348273D01*
X151137637Y-114113241D01*
X150937759Y-113913363D01*
X150702727Y-113756320D01*
X150441574Y-113648147D01*
X150164335Y-113593000D01*
X149881665Y-113593000D01*
X149604426Y-113648147D01*
X149343273Y-113756320D01*
X149108241Y-113913363D01*
X148908363Y-114113241D01*
X148751320Y-114348273D01*
X148643147Y-114609426D01*
X148638000Y-114635301D01*
X148632853Y-114609426D01*
X148524680Y-114348273D01*
X148367637Y-114113241D01*
X148167759Y-113913363D01*
X147932727Y-113756320D01*
X147671574Y-113648147D01*
X147394335Y-113593000D01*
X147111665Y-113593000D01*
X146834426Y-113648147D01*
X146573273Y-113756320D01*
X146338241Y-113913363D01*
X146138363Y-114113241D01*
X145981320Y-114348273D01*
X145873147Y-114609426D01*
X145868000Y-114635301D01*
X145862853Y-114609426D01*
X145754680Y-114348273D01*
X145597637Y-114113241D01*
X145397759Y-113913363D01*
X145162727Y-113756320D01*
X144901574Y-113648147D01*
X144624335Y-113593000D01*
X144341665Y-113593000D01*
X144064426Y-113648147D01*
X143803273Y-113756320D01*
X143568241Y-113913363D01*
X143368363Y-114113241D01*
X143211320Y-114348273D01*
X143103147Y-114609426D01*
X143048000Y-114886665D01*
X138452711Y-114886665D01*
X138473107Y-114856141D01*
X138671739Y-114376601D01*
X138773000Y-113867525D01*
X138773000Y-113348475D01*
X138671739Y-112839399D01*
X138473107Y-112359859D01*
X138263838Y-112046665D01*
X141663000Y-112046665D01*
X141663000Y-112329335D01*
X141718147Y-112606574D01*
X141826320Y-112867727D01*
X141983363Y-113102759D01*
X142183241Y-113302637D01*
X142418273Y-113459680D01*
X142679426Y-113567853D01*
X142956665Y-113623000D01*
X143239335Y-113623000D01*
X143516574Y-113567853D01*
X143777727Y-113459680D01*
X144012759Y-113302637D01*
X144212637Y-113102759D01*
X144369680Y-112867727D01*
X144477853Y-112606574D01*
X144483000Y-112580699D01*
X144488147Y-112606574D01*
X144596320Y-112867727D01*
X144753363Y-113102759D01*
X144953241Y-113302637D01*
X145188273Y-113459680D01*
X145449426Y-113567853D01*
X145726665Y-113623000D01*
X146009335Y-113623000D01*
X146286574Y-113567853D01*
X146547727Y-113459680D01*
X146782759Y-113302637D01*
X146904694Y-113180702D01*
X147824903Y-113180702D01*
X147896486Y-113424671D01*
X148151996Y-113545571D01*
X148426184Y-113614300D01*
X148708512Y-113628217D01*
X148988130Y-113586787D01*
X149254292Y-113491603D01*
X149379514Y-113424671D01*
X149451097Y-113180702D01*
X148638000Y-112367605D01*
X147824903Y-113180702D01*
X146904694Y-113180702D01*
X146982637Y-113102759D01*
X147139680Y-112867727D01*
X147247853Y-112606574D01*
X147253513Y-112578118D01*
X147334397Y-112804292D01*
X147401329Y-112929514D01*
X147645298Y-113001097D01*
X148458395Y-112188000D01*
X148817605Y-112188000D01*
X149630702Y-113001097D01*
X149874671Y-112929514D01*
X149995571Y-112674004D01*
X150021212Y-112571711D01*
X150028147Y-112606574D01*
X150136320Y-112867727D01*
X150293363Y-113102759D01*
X150493241Y-113302637D01*
X150728273Y-113459680D01*
X150989426Y-113567853D01*
X151266665Y-113623000D01*
X151549335Y-113623000D01*
X151826574Y-113567853D01*
X152087727Y-113459680D01*
X152322759Y-113302637D01*
X152522637Y-113102759D01*
X152679680Y-112867727D01*
X152739928Y-112722275D01*
X152739928Y-112988000D01*
X152752188Y-113112482D01*
X152788498Y-113232180D01*
X152847463Y-113342494D01*
X152926815Y-113439185D01*
X153023506Y-113518537D01*
X153133820Y-113577502D01*
X153253518Y-113613812D01*
X153378000Y-113626072D01*
X154978000Y-113626072D01*
X155102482Y-113613812D01*
X155222180Y-113577502D01*
X155332494Y-113518537D01*
X155429185Y-113439185D01*
X155503628Y-113348475D01*
X158503000Y-113348475D01*
X158503000Y-113867525D01*
X158604261Y-114376601D01*
X158802893Y-114856141D01*
X159091262Y-115287715D01*
X159458285Y-115654738D01*
X159889859Y-115943107D01*
X160369399Y-116141739D01*
X160878475Y-116243000D01*
X161397525Y-116243000D01*
X161906601Y-116141739D01*
X161978706Y-116111872D01*
X174041000Y-116111872D01*
X174041000Y-116552128D01*
X174126890Y-116983925D01*
X174295369Y-117390669D01*
X174539962Y-117756729D01*
X174851271Y-118068038D01*
X175217331Y-118312631D01*
X175624075Y-118481110D01*
X176055872Y-118567000D01*
X176496128Y-118567000D01*
X176927925Y-118481110D01*
X177334669Y-118312631D01*
X177700729Y-118068038D01*
X178012038Y-117756729D01*
X178256631Y-117390669D01*
X178425110Y-116983925D01*
X178511000Y-116552128D01*
X178511000Y-116111872D01*
X178425110Y-115680075D01*
X178256631Y-115273331D01*
X178012038Y-114907271D01*
X177700729Y-114595962D01*
X177334669Y-114351369D01*
X176927925Y-114182890D01*
X176496128Y-114097000D01*
X176055872Y-114097000D01*
X175624075Y-114182890D01*
X175217331Y-114351369D01*
X174851271Y-114595962D01*
X174539962Y-114907271D01*
X174295369Y-115273331D01*
X174126890Y-115680075D01*
X174041000Y-116111872D01*
X161978706Y-116111872D01*
X162386141Y-115943107D01*
X162817715Y-115654738D01*
X163184738Y-115287715D01*
X163473107Y-114856141D01*
X163671739Y-114376601D01*
X163773000Y-113867525D01*
X163773000Y-113348475D01*
X163671739Y-112839399D01*
X163473107Y-112359859D01*
X163184738Y-111928285D01*
X162817715Y-111561262D01*
X162386141Y-111272893D01*
X161906601Y-111074261D01*
X161397525Y-110973000D01*
X160878475Y-110973000D01*
X160369399Y-111074261D01*
X159889859Y-111272893D01*
X159458285Y-111561262D01*
X159091262Y-111928285D01*
X158802893Y-112359859D01*
X158604261Y-112839399D01*
X158503000Y-113348475D01*
X155503628Y-113348475D01*
X155508537Y-113342494D01*
X155567502Y-113232180D01*
X155603812Y-113112482D01*
X155616072Y-112988000D01*
X155616072Y-111388000D01*
X155603812Y-111263518D01*
X155567502Y-111143820D01*
X155508537Y-111033506D01*
X155429185Y-110936815D01*
X155332494Y-110857463D01*
X155222180Y-110798498D01*
X155102482Y-110762188D01*
X154978000Y-110749928D01*
X153378000Y-110749928D01*
X153253518Y-110762188D01*
X153133820Y-110798498D01*
X153023506Y-110857463D01*
X152926815Y-110936815D01*
X152847463Y-111033506D01*
X152788498Y-111143820D01*
X152752188Y-111263518D01*
X152739928Y-111388000D01*
X152739928Y-111653725D01*
X152679680Y-111508273D01*
X152522637Y-111273241D01*
X152322759Y-111073363D01*
X152087727Y-110916320D01*
X151826574Y-110808147D01*
X151549335Y-110753000D01*
X151266665Y-110753000D01*
X150989426Y-110808147D01*
X150728273Y-110916320D01*
X150493241Y-111073363D01*
X150293363Y-111273241D01*
X150136320Y-111508273D01*
X150028147Y-111769426D01*
X150022487Y-111797882D01*
X149941603Y-111571708D01*
X149874671Y-111446486D01*
X149630702Y-111374903D01*
X148817605Y-112188000D01*
X148458395Y-112188000D01*
X147645298Y-111374903D01*
X147401329Y-111446486D01*
X147280429Y-111701996D01*
X147254788Y-111804289D01*
X147247853Y-111769426D01*
X147139680Y-111508273D01*
X146982637Y-111273241D01*
X146904694Y-111195298D01*
X147824903Y-111195298D01*
X148638000Y-112008395D01*
X149451097Y-111195298D01*
X149379514Y-110951329D01*
X149124004Y-110830429D01*
X148849816Y-110761700D01*
X148567488Y-110747783D01*
X148287870Y-110789213D01*
X148021708Y-110884397D01*
X147896486Y-110951329D01*
X147824903Y-111195298D01*
X146904694Y-111195298D01*
X146782759Y-111073363D01*
X146547727Y-110916320D01*
X146286574Y-110808147D01*
X146009335Y-110753000D01*
X145726665Y-110753000D01*
X145449426Y-110808147D01*
X145188273Y-110916320D01*
X144953241Y-111073363D01*
X144753363Y-111273241D01*
X144596320Y-111508273D01*
X144488147Y-111769426D01*
X144483000Y-111795301D01*
X144477853Y-111769426D01*
X144369680Y-111508273D01*
X144212637Y-111273241D01*
X144012759Y-111073363D01*
X143777727Y-110916320D01*
X143516574Y-110808147D01*
X143239335Y-110753000D01*
X142956665Y-110753000D01*
X142679426Y-110808147D01*
X142418273Y-110916320D01*
X142183241Y-111073363D01*
X141983363Y-111273241D01*
X141826320Y-111508273D01*
X141718147Y-111769426D01*
X141663000Y-112046665D01*
X138263838Y-112046665D01*
X138184738Y-111928285D01*
X137817715Y-111561262D01*
X137386141Y-111272893D01*
X136906601Y-111074261D01*
X136397525Y-110973000D01*
X135878475Y-110973000D01*
X135369399Y-111074261D01*
X134889859Y-111272893D01*
X134458285Y-111561262D01*
X134091262Y-111928285D01*
X133802893Y-112359859D01*
X133604261Y-112839399D01*
X133503000Y-113348475D01*
X125660000Y-113348475D01*
X125660000Y-109830891D01*
X166198519Y-109830891D01*
X166295843Y-110105252D01*
X166444822Y-110355355D01*
X166639731Y-110571588D01*
X166873080Y-110745641D01*
X167135901Y-110870825D01*
X167283110Y-110915476D01*
X167513000Y-110794155D01*
X167513000Y-109601000D01*
X166319186Y-109601000D01*
X166198519Y-109830891D01*
X125660000Y-109830891D01*
X125660000Y-109117109D01*
X166198519Y-109117109D01*
X166319186Y-109347000D01*
X167513000Y-109347000D01*
X167513000Y-108153845D01*
X167283110Y-108032524D01*
X167135901Y-108077175D01*
X166873080Y-108202359D01*
X166639731Y-108376412D01*
X166444822Y-108592645D01*
X166295843Y-108842748D01*
X166198519Y-109117109D01*
X125660000Y-109117109D01*
X125660000Y-100146000D01*
X150307928Y-100146000D01*
X150307928Y-102546000D01*
X150320188Y-102670482D01*
X150356498Y-102790180D01*
X150415463Y-102900494D01*
X150494815Y-102997185D01*
X150591506Y-103076537D01*
X150701820Y-103135502D01*
X150821518Y-103171812D01*
X150946000Y-103184072D01*
X153346000Y-103184072D01*
X153470482Y-103171812D01*
X153590180Y-103135502D01*
X153700494Y-103076537D01*
X153797185Y-102997185D01*
X153876537Y-102900494D01*
X153935502Y-102790180D01*
X153971812Y-102670482D01*
X153984072Y-102546000D01*
X153984072Y-101346000D01*
X160462122Y-101346000D01*
X160497552Y-101705723D01*
X160602479Y-102051622D01*
X160772871Y-102370404D01*
X161002181Y-102649819D01*
X161281596Y-102879129D01*
X161600378Y-103049521D01*
X161946277Y-103154448D01*
X162215861Y-103181000D01*
X162396139Y-103181000D01*
X162665723Y-103154448D01*
X163011622Y-103049521D01*
X163330404Y-102879129D01*
X163609819Y-102649819D01*
X163839129Y-102370404D01*
X163843621Y-102362000D01*
X165187160Y-102362000D01*
X169164001Y-106338842D01*
X169164000Y-108010782D01*
X169085820Y-108034498D01*
X168975506Y-108093463D01*
X168878815Y-108172815D01*
X168799463Y-108269506D01*
X168740498Y-108379820D01*
X168716034Y-108460466D01*
X168640269Y-108376412D01*
X168406920Y-108202359D01*
X168144099Y-108077175D01*
X167996890Y-108032524D01*
X167767000Y-108153845D01*
X167767000Y-109347000D01*
X167787000Y-109347000D01*
X167787000Y-109601000D01*
X167767000Y-109601000D01*
X167767000Y-110794155D01*
X167996890Y-110915476D01*
X168144099Y-110870825D01*
X168406920Y-110745641D01*
X168640269Y-110571588D01*
X168716034Y-110487534D01*
X168740498Y-110568180D01*
X168799463Y-110678494D01*
X168878815Y-110775185D01*
X168975506Y-110854537D01*
X169085820Y-110913502D01*
X169205518Y-110949812D01*
X169330000Y-110962072D01*
X171030000Y-110962072D01*
X171154482Y-110949812D01*
X171274180Y-110913502D01*
X171384494Y-110854537D01*
X171481185Y-110775185D01*
X171560537Y-110678494D01*
X171619502Y-110568180D01*
X171655812Y-110448482D01*
X171668072Y-110324000D01*
X171668072Y-108624000D01*
X171655812Y-108499518D01*
X171619502Y-108379820D01*
X171560537Y-108269506D01*
X171481185Y-108172815D01*
X171384494Y-108093463D01*
X171274180Y-108034498D01*
X171196000Y-108010782D01*
X171196000Y-105967893D01*
X171200914Y-105917999D01*
X171196000Y-105868105D01*
X171196000Y-105868098D01*
X171181298Y-105718829D01*
X171123202Y-105527313D01*
X171028860Y-105350810D01*
X170901896Y-105196104D01*
X170863133Y-105164292D01*
X166361712Y-100662872D01*
X166329896Y-100624104D01*
X166175190Y-100497140D01*
X165998687Y-100402798D01*
X165807171Y-100344702D01*
X165657902Y-100330000D01*
X165608000Y-100325085D01*
X165558098Y-100330000D01*
X163843621Y-100330000D01*
X163839129Y-100321596D01*
X163609819Y-100042181D01*
X163330404Y-99812871D01*
X163011622Y-99642479D01*
X162665723Y-99537552D01*
X162396139Y-99511000D01*
X162215861Y-99511000D01*
X161946277Y-99537552D01*
X161600378Y-99642479D01*
X161281596Y-99812871D01*
X161002181Y-100042181D01*
X160772871Y-100321596D01*
X160602479Y-100640378D01*
X160497552Y-100986277D01*
X160462122Y-101346000D01*
X153984072Y-101346000D01*
X153984072Y-100146000D01*
X153971812Y-100021518D01*
X153935502Y-99901820D01*
X153876537Y-99791506D01*
X153797185Y-99694815D01*
X153700494Y-99615463D01*
X153590180Y-99556498D01*
X153470482Y-99520188D01*
X153346000Y-99507928D01*
X150946000Y-99507928D01*
X150821518Y-99520188D01*
X150701820Y-99556498D01*
X150591506Y-99615463D01*
X150494815Y-99694815D01*
X150415463Y-99791506D01*
X150356498Y-99901820D01*
X150320188Y-100021518D01*
X150307928Y-100146000D01*
X125660000Y-100146000D01*
X125660000Y-80317740D01*
X134405000Y-80317740D01*
X134405000Y-80610260D01*
X134462068Y-80897158D01*
X134574010Y-81167411D01*
X134736525Y-81410632D01*
X134943368Y-81617475D01*
X135117760Y-81734000D01*
X134943368Y-81850525D01*
X134736525Y-82057368D01*
X134574010Y-82300589D01*
X134462068Y-82570842D01*
X134405000Y-82857740D01*
X134405000Y-83150260D01*
X134462068Y-83437158D01*
X134574010Y-83707411D01*
X134736525Y-83950632D01*
X134943368Y-84157475D01*
X135117760Y-84274000D01*
X134943368Y-84390525D01*
X134736525Y-84597368D01*
X134574010Y-84840589D01*
X134462068Y-85110842D01*
X134405000Y-85397740D01*
X134405000Y-85690260D01*
X134462068Y-85977158D01*
X134574010Y-86247411D01*
X134736525Y-86490632D01*
X134943368Y-86697475D01*
X135117760Y-86814000D01*
X134943368Y-86930525D01*
X134736525Y-87137368D01*
X134574010Y-87380589D01*
X134462068Y-87650842D01*
X134405000Y-87937740D01*
X134405000Y-88230260D01*
X134462068Y-88517158D01*
X134574010Y-88787411D01*
X134736525Y-89030632D01*
X134943368Y-89237475D01*
X135117760Y-89354000D01*
X134943368Y-89470525D01*
X134736525Y-89677368D01*
X134574010Y-89920589D01*
X134462068Y-90190842D01*
X134405000Y-90477740D01*
X134405000Y-90770260D01*
X134462068Y-91057158D01*
X134574010Y-91327411D01*
X134736525Y-91570632D01*
X134943368Y-91777475D01*
X135117760Y-91894000D01*
X134943368Y-92010525D01*
X134736525Y-92217368D01*
X134574010Y-92460589D01*
X134462068Y-92730842D01*
X134405000Y-93017740D01*
X134405000Y-93310260D01*
X134462068Y-93597158D01*
X134574010Y-93867411D01*
X134736525Y-94110632D01*
X134943368Y-94317475D01*
X135117760Y-94434000D01*
X134943368Y-94550525D01*
X134736525Y-94757368D01*
X134574010Y-95000589D01*
X134462068Y-95270842D01*
X134405000Y-95557740D01*
X134405000Y-95850260D01*
X134462068Y-96137158D01*
X134574010Y-96407411D01*
X134736525Y-96650632D01*
X134943368Y-96857475D01*
X135186589Y-97019990D01*
X135456842Y-97131932D01*
X135743740Y-97189000D01*
X136036260Y-97189000D01*
X136323158Y-97131932D01*
X136593411Y-97019990D01*
X136792946Y-96886665D01*
X150711000Y-96886665D01*
X150711000Y-97169335D01*
X150766147Y-97446574D01*
X150874320Y-97707727D01*
X151031363Y-97942759D01*
X151231241Y-98142637D01*
X151466273Y-98299680D01*
X151727426Y-98407853D01*
X152004665Y-98463000D01*
X152287335Y-98463000D01*
X152564574Y-98407853D01*
X152825727Y-98299680D01*
X153060759Y-98142637D01*
X153260637Y-97942759D01*
X153417680Y-97707727D01*
X153525853Y-97446574D01*
X153581000Y-97169335D01*
X153581000Y-96886665D01*
X153525853Y-96609426D01*
X153417680Y-96348273D01*
X153260637Y-96113241D01*
X153060759Y-95913363D01*
X152825727Y-95756320D01*
X152564574Y-95648147D01*
X152287335Y-95593000D01*
X152004665Y-95593000D01*
X151727426Y-95648147D01*
X151466273Y-95756320D01*
X151231241Y-95913363D01*
X151031363Y-96113241D01*
X150874320Y-96348273D01*
X150766147Y-96609426D01*
X150711000Y-96886665D01*
X136792946Y-96886665D01*
X136836632Y-96857475D01*
X137043475Y-96650632D01*
X137205990Y-96407411D01*
X137317932Y-96137158D01*
X137375000Y-95850260D01*
X137375000Y-95557740D01*
X137317932Y-95270842D01*
X137205990Y-95000589D01*
X137043475Y-94757368D01*
X136836632Y-94550525D01*
X136662240Y-94434000D01*
X136836632Y-94317475D01*
X137043475Y-94110632D01*
X137205990Y-93867411D01*
X137264564Y-93726000D01*
X141948577Y-93726000D01*
X141986000Y-93729686D01*
X142023423Y-93726000D01*
X142023426Y-93726000D01*
X142135378Y-93714974D01*
X142279015Y-93671402D01*
X142411392Y-93600645D01*
X142527422Y-93505422D01*
X142551284Y-93476346D01*
X149159630Y-86868000D01*
X150704057Y-86868000D01*
X150731764Y-87149309D01*
X150813818Y-87419808D01*
X150947068Y-87669101D01*
X151126392Y-87887608D01*
X151344899Y-88066932D01*
X151594192Y-88200182D01*
X151864691Y-88282236D01*
X152075508Y-88303000D01*
X152216492Y-88303000D01*
X152427309Y-88282236D01*
X152697808Y-88200182D01*
X152947101Y-88066932D01*
X153165608Y-87887608D01*
X153344932Y-87669101D01*
X153478182Y-87419808D01*
X153560236Y-87149309D01*
X153587943Y-86868000D01*
X153560236Y-86586691D01*
X153478182Y-86316192D01*
X153344932Y-86066899D01*
X153165608Y-85848392D01*
X152947101Y-85669068D01*
X152697808Y-85535818D01*
X152427309Y-85453764D01*
X152216492Y-85433000D01*
X152075508Y-85433000D01*
X151864691Y-85453764D01*
X151594192Y-85535818D01*
X151344899Y-85669068D01*
X151126392Y-85848392D01*
X150947068Y-86066899D01*
X150813818Y-86316192D01*
X150731764Y-86586691D01*
X150704057Y-86868000D01*
X149159630Y-86868000D01*
X152207630Y-83820000D01*
X155784057Y-83820000D01*
X155811764Y-84101309D01*
X155893818Y-84371808D01*
X156027068Y-84621101D01*
X156206392Y-84839608D01*
X156424899Y-85018932D01*
X156674192Y-85152182D01*
X156944691Y-85234236D01*
X157155508Y-85255000D01*
X157296492Y-85255000D01*
X157507309Y-85234236D01*
X157777808Y-85152182D01*
X158027101Y-85018932D01*
X158245608Y-84839608D01*
X158424932Y-84621101D01*
X158558182Y-84371808D01*
X158640236Y-84101309D01*
X158667943Y-83820000D01*
X158640236Y-83538691D01*
X158558182Y-83268192D01*
X158424932Y-83018899D01*
X158245608Y-82800392D01*
X158027101Y-82621068D01*
X157777808Y-82487818D01*
X157507309Y-82405764D01*
X157296492Y-82385000D01*
X157155508Y-82385000D01*
X156944691Y-82405764D01*
X156674192Y-82487818D01*
X156424899Y-82621068D01*
X156206392Y-82800392D01*
X156027068Y-83018899D01*
X155893818Y-83268192D01*
X155811764Y-83538691D01*
X155784057Y-83820000D01*
X152207630Y-83820000D01*
X152529353Y-83498278D01*
X152558422Y-83474422D01*
X152653645Y-83358392D01*
X152724402Y-83226015D01*
X152767974Y-83082378D01*
X152779000Y-82970426D01*
X152779000Y-82970424D01*
X152782686Y-82933001D01*
X152779000Y-82895578D01*
X152779000Y-80289115D01*
X152838690Y-80249232D01*
X153018232Y-80069690D01*
X153159297Y-79858570D01*
X153256465Y-79623987D01*
X153306000Y-79374955D01*
X153306000Y-79121045D01*
X153261887Y-78899269D01*
X155722336Y-78899269D01*
X155781797Y-79133037D01*
X156020242Y-79243934D01*
X156275740Y-79306183D01*
X156538473Y-79317390D01*
X156798344Y-79277125D01*
X157045366Y-79186935D01*
X157146203Y-79133037D01*
X157205664Y-78899269D01*
X156464000Y-78157605D01*
X155722336Y-78899269D01*
X153261887Y-78899269D01*
X153256465Y-78872013D01*
X153159297Y-78637430D01*
X153018232Y-78426310D01*
X152838690Y-78246768D01*
X152627570Y-78105703D01*
X152499063Y-78052473D01*
X155124610Y-78052473D01*
X155164875Y-78312344D01*
X155255065Y-78559366D01*
X155308963Y-78660203D01*
X155542731Y-78719664D01*
X156284395Y-77978000D01*
X156643605Y-77978000D01*
X157385269Y-78719664D01*
X157619037Y-78660203D01*
X157729934Y-78421758D01*
X157792183Y-78166260D01*
X157803390Y-77903527D01*
X157763125Y-77643656D01*
X157672935Y-77396634D01*
X157619037Y-77295797D01*
X157385269Y-77236336D01*
X156643605Y-77978000D01*
X156284395Y-77978000D01*
X155542731Y-77236336D01*
X155308963Y-77295797D01*
X155198066Y-77534242D01*
X155135817Y-77789740D01*
X155124610Y-78052473D01*
X152499063Y-78052473D01*
X152392987Y-78008535D01*
X152239476Y-77978000D01*
X152392987Y-77947465D01*
X152627570Y-77850297D01*
X152838690Y-77709232D01*
X153018232Y-77529690D01*
X153159297Y-77318570D01*
X153256465Y-77083987D01*
X153306000Y-76834955D01*
X153306000Y-76581045D01*
X153256465Y-76332013D01*
X153159297Y-76097430D01*
X153018232Y-75886310D01*
X152838690Y-75706768D01*
X152627570Y-75565703D01*
X152392987Y-75468535D01*
X152239476Y-75438000D01*
X152392987Y-75407465D01*
X152540134Y-75346514D01*
X155129000Y-75346514D01*
X155129000Y-75609486D01*
X155180304Y-75867405D01*
X155280939Y-76110359D01*
X155427038Y-76329013D01*
X155612987Y-76514962D01*
X155831641Y-76661061D01*
X155994118Y-76728361D01*
X155882634Y-76769065D01*
X155781797Y-76822963D01*
X155722336Y-77056731D01*
X156464000Y-77798395D01*
X157205664Y-77056731D01*
X157146203Y-76822963D01*
X156938596Y-76726408D01*
X157096359Y-76661061D01*
X157315013Y-76514962D01*
X157500962Y-76329013D01*
X157647061Y-76110359D01*
X157747696Y-75867405D01*
X157799000Y-75609486D01*
X157799000Y-75346514D01*
X157747696Y-75088595D01*
X157647061Y-74845641D01*
X157500962Y-74626987D01*
X157315013Y-74441038D01*
X157096359Y-74294939D01*
X156853405Y-74194304D01*
X156595486Y-74143000D01*
X156332514Y-74143000D01*
X156074595Y-74194304D01*
X155831641Y-74294939D01*
X155612987Y-74441038D01*
X155427038Y-74626987D01*
X155280939Y-74845641D01*
X155180304Y-75088595D01*
X155129000Y-75346514D01*
X152540134Y-75346514D01*
X152627570Y-75310297D01*
X152838690Y-75169232D01*
X153018232Y-74989690D01*
X153159297Y-74778570D01*
X153256465Y-74543987D01*
X153306000Y-74294955D01*
X153306000Y-74041045D01*
X153256465Y-73792013D01*
X153159297Y-73557430D01*
X153018232Y-73346310D01*
X152838690Y-73166768D01*
X152627570Y-73025703D01*
X152392987Y-72928535D01*
X152350440Y-72920072D01*
X152671000Y-72920072D01*
X152795482Y-72907812D01*
X152915180Y-72871502D01*
X153025494Y-72812537D01*
X153122185Y-72733185D01*
X153151273Y-72697740D01*
X159805000Y-72697740D01*
X159805000Y-72990260D01*
X159862068Y-73277158D01*
X159974010Y-73547411D01*
X160136525Y-73790632D01*
X160343368Y-73997475D01*
X160517760Y-74114000D01*
X160343368Y-74230525D01*
X160136525Y-74437368D01*
X159974010Y-74680589D01*
X159862068Y-74950842D01*
X159805000Y-75237740D01*
X159805000Y-75530260D01*
X159862068Y-75817158D01*
X159974010Y-76087411D01*
X160136525Y-76330632D01*
X160343368Y-76537475D01*
X160517760Y-76654000D01*
X160343368Y-76770525D01*
X160136525Y-76977368D01*
X159974010Y-77220589D01*
X159862068Y-77490842D01*
X159805000Y-77777740D01*
X159805000Y-78070260D01*
X159862068Y-78357158D01*
X159974010Y-78627411D01*
X160136525Y-78870632D01*
X160343368Y-79077475D01*
X160517760Y-79194000D01*
X160343368Y-79310525D01*
X160136525Y-79517368D01*
X159974010Y-79760589D01*
X159862068Y-80030842D01*
X159805000Y-80317740D01*
X159805000Y-80610260D01*
X159862068Y-80897158D01*
X159974010Y-81167411D01*
X160136525Y-81410632D01*
X160343368Y-81617475D01*
X160517760Y-81734000D01*
X160343368Y-81850525D01*
X160136525Y-82057368D01*
X159974010Y-82300589D01*
X159862068Y-82570842D01*
X159805000Y-82857740D01*
X159805000Y-83150260D01*
X159862068Y-83437158D01*
X159974010Y-83707411D01*
X160136525Y-83950632D01*
X160343368Y-84157475D01*
X160517760Y-84274000D01*
X160343368Y-84390525D01*
X160136525Y-84597368D01*
X159974010Y-84840589D01*
X159862068Y-85110842D01*
X159805000Y-85397740D01*
X159805000Y-85690260D01*
X159862068Y-85977158D01*
X159974010Y-86247411D01*
X160136525Y-86490632D01*
X160343368Y-86697475D01*
X160517760Y-86814000D01*
X160343368Y-86930525D01*
X160136525Y-87137368D01*
X159974010Y-87380589D01*
X159862068Y-87650842D01*
X159805000Y-87937740D01*
X159805000Y-88230260D01*
X159862068Y-88517158D01*
X159974010Y-88787411D01*
X160136525Y-89030632D01*
X160343368Y-89237475D01*
X160517760Y-89354000D01*
X160343368Y-89470525D01*
X160136525Y-89677368D01*
X159974010Y-89920589D01*
X159862068Y-90190842D01*
X159805000Y-90477740D01*
X159805000Y-90770260D01*
X159862068Y-91057158D01*
X159974010Y-91327411D01*
X160136525Y-91570632D01*
X160343368Y-91777475D01*
X160517760Y-91894000D01*
X160343368Y-92010525D01*
X160136525Y-92217368D01*
X159974010Y-92460589D01*
X159862068Y-92730842D01*
X159805000Y-93017740D01*
X159805000Y-93310260D01*
X159862068Y-93597158D01*
X159974010Y-93867411D01*
X160136525Y-94110632D01*
X160343368Y-94317475D01*
X160517760Y-94434000D01*
X160343368Y-94550525D01*
X160136525Y-94757368D01*
X159974010Y-95000589D01*
X159862068Y-95270842D01*
X159805000Y-95557740D01*
X159805000Y-95850260D01*
X159862068Y-96137158D01*
X159974010Y-96407411D01*
X160136525Y-96650632D01*
X160343368Y-96857475D01*
X160586589Y-97019990D01*
X160856842Y-97131932D01*
X161143740Y-97189000D01*
X161436260Y-97189000D01*
X161723158Y-97131932D01*
X161993411Y-97019990D01*
X162236632Y-96857475D01*
X162443475Y-96650632D01*
X162605990Y-96407411D01*
X162717932Y-96137158D01*
X162775000Y-95850260D01*
X162775000Y-95557740D01*
X162717932Y-95270842D01*
X162605990Y-95000589D01*
X162443475Y-94757368D01*
X162236632Y-94550525D01*
X162062240Y-94434000D01*
X162236632Y-94317475D01*
X162443475Y-94110632D01*
X162605990Y-93867411D01*
X162717932Y-93597158D01*
X162775000Y-93310260D01*
X162775000Y-93017740D01*
X162717932Y-92730842D01*
X162605990Y-92460589D01*
X162443475Y-92217368D01*
X162236632Y-92010525D01*
X162062240Y-91894000D01*
X162236632Y-91777475D01*
X162443475Y-91570632D01*
X162605990Y-91327411D01*
X162717932Y-91057158D01*
X162760332Y-90844000D01*
X165135928Y-90844000D01*
X165135928Y-92544000D01*
X165148188Y-92668482D01*
X165184498Y-92788180D01*
X165243463Y-92898494D01*
X165322815Y-92995185D01*
X165419506Y-93074537D01*
X165529820Y-93133502D01*
X165649518Y-93169812D01*
X165774000Y-93182072D01*
X167474000Y-93182072D01*
X167598482Y-93169812D01*
X167718180Y-93133502D01*
X167828494Y-93074537D01*
X167925185Y-92995185D01*
X168004537Y-92898494D01*
X168063502Y-92788180D01*
X168084393Y-92719313D01*
X168108866Y-92749134D01*
X168334986Y-92934706D01*
X168592966Y-93072599D01*
X168872889Y-93157513D01*
X169091050Y-93179000D01*
X169236950Y-93179000D01*
X169455111Y-93157513D01*
X169735034Y-93072599D01*
X169993014Y-92934706D01*
X170219134Y-92749134D01*
X170404706Y-92523014D01*
X170542599Y-92265034D01*
X170627513Y-91985111D01*
X170656185Y-91694000D01*
X170627513Y-91402889D01*
X170542599Y-91122966D01*
X170404706Y-90864986D01*
X170219134Y-90638866D01*
X169993014Y-90453294D01*
X169735034Y-90315401D01*
X169455111Y-90230487D01*
X169236950Y-90209000D01*
X169091050Y-90209000D01*
X168872889Y-90230487D01*
X168592966Y-90315401D01*
X168334986Y-90453294D01*
X168108866Y-90638866D01*
X168084393Y-90668687D01*
X168063502Y-90599820D01*
X168004537Y-90489506D01*
X167925185Y-90392815D01*
X167828494Y-90313463D01*
X167718180Y-90254498D01*
X167598482Y-90218188D01*
X167474000Y-90205928D01*
X165774000Y-90205928D01*
X165649518Y-90218188D01*
X165529820Y-90254498D01*
X165419506Y-90313463D01*
X165322815Y-90392815D01*
X165243463Y-90489506D01*
X165184498Y-90599820D01*
X165148188Y-90719518D01*
X165135928Y-90844000D01*
X162760332Y-90844000D01*
X162775000Y-90770260D01*
X162775000Y-90477740D01*
X162717932Y-90190842D01*
X162605990Y-89920589D01*
X162443475Y-89677368D01*
X162236632Y-89470525D01*
X162062240Y-89354000D01*
X162236632Y-89237475D01*
X162443475Y-89030632D01*
X162605990Y-88787411D01*
X162717932Y-88517158D01*
X162775000Y-88230260D01*
X162775000Y-87937740D01*
X162717932Y-87650842D01*
X162605990Y-87380589D01*
X162443475Y-87137368D01*
X162236632Y-86930525D01*
X162062240Y-86814000D01*
X162236632Y-86697475D01*
X162443475Y-86490632D01*
X162605990Y-86247411D01*
X162717932Y-85977158D01*
X162775000Y-85690260D01*
X162775000Y-85397740D01*
X162717932Y-85110842D01*
X162605990Y-84840589D01*
X162443475Y-84597368D01*
X162236632Y-84390525D01*
X162062240Y-84274000D01*
X162236632Y-84157475D01*
X162250107Y-84144000D01*
X165293928Y-84144000D01*
X165293928Y-86544000D01*
X165306188Y-86668482D01*
X165342498Y-86788180D01*
X165401463Y-86898494D01*
X165480815Y-86995185D01*
X165577506Y-87074537D01*
X165687820Y-87133502D01*
X165807518Y-87169812D01*
X165932000Y-87182072D01*
X168332000Y-87182072D01*
X168456482Y-87169812D01*
X168576180Y-87133502D01*
X168686494Y-87074537D01*
X168783185Y-86995185D01*
X168862537Y-86898494D01*
X168921502Y-86788180D01*
X168957812Y-86668482D01*
X168970072Y-86544000D01*
X168970072Y-84144000D01*
X168957812Y-84019518D01*
X168921502Y-83899820D01*
X168862537Y-83789506D01*
X168783185Y-83692815D01*
X168686494Y-83613463D01*
X168576180Y-83554498D01*
X168456482Y-83518188D01*
X168332000Y-83505928D01*
X165932000Y-83505928D01*
X165807518Y-83518188D01*
X165687820Y-83554498D01*
X165577506Y-83613463D01*
X165480815Y-83692815D01*
X165401463Y-83789506D01*
X165342498Y-83899820D01*
X165306188Y-84019518D01*
X165293928Y-84144000D01*
X162250107Y-84144000D01*
X162443475Y-83950632D01*
X162605990Y-83707411D01*
X162717932Y-83437158D01*
X162775000Y-83150260D01*
X162775000Y-82857740D01*
X162717932Y-82570842D01*
X162605990Y-82300589D01*
X162443475Y-82057368D01*
X162236632Y-81850525D01*
X162062240Y-81734000D01*
X162236632Y-81617475D01*
X162443475Y-81410632D01*
X162605990Y-81167411D01*
X162717932Y-80897158D01*
X162775000Y-80610260D01*
X162775000Y-80317740D01*
X162717932Y-80030842D01*
X162605990Y-79760589D01*
X162443475Y-79517368D01*
X162236632Y-79310525D01*
X162062240Y-79194000D01*
X162236632Y-79077475D01*
X162443475Y-78870632D01*
X162605990Y-78627411D01*
X162717932Y-78357158D01*
X162775000Y-78070260D01*
X162775000Y-77777740D01*
X162717932Y-77490842D01*
X162605990Y-77220589D01*
X162443475Y-76977368D01*
X162236632Y-76770525D01*
X162062240Y-76654000D01*
X162236632Y-76537475D01*
X162443475Y-76330632D01*
X162605990Y-76087411D01*
X162717932Y-75817158D01*
X162775000Y-75530260D01*
X162775000Y-75237740D01*
X162717932Y-74950842D01*
X162605990Y-74680589D01*
X162443475Y-74437368D01*
X162236632Y-74230525D01*
X162062240Y-74114000D01*
X162236632Y-73997475D01*
X162443475Y-73790632D01*
X162605990Y-73547411D01*
X162717932Y-73277158D01*
X162761961Y-73055806D01*
X165343801Y-73055806D01*
X165458500Y-73396754D01*
X165637511Y-73708774D01*
X165873954Y-73979875D01*
X166158743Y-74199639D01*
X166480934Y-74359621D01*
X166720195Y-74432195D01*
X167005000Y-74315432D01*
X167005000Y-72771000D01*
X167259000Y-72771000D01*
X167259000Y-74315432D01*
X167543805Y-74432195D01*
X167783066Y-74359621D01*
X168105257Y-74199639D01*
X168390046Y-73979875D01*
X168626489Y-73708774D01*
X168805500Y-73396754D01*
X168920199Y-73055806D01*
X168803854Y-72771000D01*
X167259000Y-72771000D01*
X167005000Y-72771000D01*
X165460146Y-72771000D01*
X165343801Y-73055806D01*
X162761961Y-73055806D01*
X162775000Y-72990260D01*
X162775000Y-72697740D01*
X162717932Y-72410842D01*
X162643934Y-72232194D01*
X165343801Y-72232194D01*
X165460146Y-72517000D01*
X167005000Y-72517000D01*
X167005000Y-70972568D01*
X167259000Y-70972568D01*
X167259000Y-72517000D01*
X168803854Y-72517000D01*
X168920199Y-72232194D01*
X168805500Y-71891246D01*
X168626489Y-71579226D01*
X168390046Y-71308125D01*
X168105257Y-71088361D01*
X167783066Y-70928379D01*
X167543805Y-70855805D01*
X167259000Y-70972568D01*
X167005000Y-70972568D01*
X166720195Y-70855805D01*
X166480934Y-70928379D01*
X166158743Y-71088361D01*
X165873954Y-71308125D01*
X165637511Y-71579226D01*
X165458500Y-71891246D01*
X165343801Y-72232194D01*
X162643934Y-72232194D01*
X162605990Y-72140589D01*
X162443475Y-71897368D01*
X162236632Y-71690525D01*
X161993411Y-71528010D01*
X161723158Y-71416068D01*
X161436260Y-71359000D01*
X161143740Y-71359000D01*
X160856842Y-71416068D01*
X160586589Y-71528010D01*
X160343368Y-71690525D01*
X160136525Y-71897368D01*
X159974010Y-72140589D01*
X159862068Y-72410842D01*
X159805000Y-72697740D01*
X153151273Y-72697740D01*
X153201537Y-72636494D01*
X153260502Y-72526180D01*
X153296812Y-72406482D01*
X153309072Y-72282000D01*
X153309072Y-70974000D01*
X153296812Y-70849518D01*
X153260502Y-70729820D01*
X153201537Y-70619506D01*
X153122185Y-70522815D01*
X153025494Y-70443463D01*
X152915180Y-70384498D01*
X152795482Y-70348188D01*
X152671000Y-70335928D01*
X151363000Y-70335928D01*
X151238518Y-70348188D01*
X151118820Y-70384498D01*
X151008506Y-70443463D01*
X150911815Y-70522815D01*
X150832463Y-70619506D01*
X150773498Y-70729820D01*
X150737188Y-70849518D01*
X150724928Y-70974000D01*
X150724928Y-72282000D01*
X150737188Y-72406482D01*
X150773498Y-72526180D01*
X150832463Y-72636494D01*
X150911815Y-72733185D01*
X151008506Y-72812537D01*
X151118820Y-72871502D01*
X151238518Y-72907812D01*
X151363000Y-72920072D01*
X151683560Y-72920072D01*
X151641013Y-72928535D01*
X151406430Y-73025703D01*
X151195310Y-73166768D01*
X151015768Y-73346310D01*
X150874703Y-73557430D01*
X150777535Y-73792013D01*
X150728000Y-74041045D01*
X150728000Y-74294955D01*
X150777535Y-74543987D01*
X150874703Y-74778570D01*
X151015768Y-74989690D01*
X151195310Y-75169232D01*
X151406430Y-75310297D01*
X151641013Y-75407465D01*
X151794524Y-75438000D01*
X151641013Y-75468535D01*
X151406430Y-75565703D01*
X151195310Y-75706768D01*
X151015768Y-75886310D01*
X150874703Y-76097430D01*
X150777535Y-76332013D01*
X150728000Y-76581045D01*
X150728000Y-76834955D01*
X150777535Y-77083987D01*
X150874703Y-77318570D01*
X151015768Y-77529690D01*
X151195310Y-77709232D01*
X151406430Y-77850297D01*
X151641013Y-77947465D01*
X151794524Y-77978000D01*
X151641013Y-78008535D01*
X151406430Y-78105703D01*
X151195310Y-78246768D01*
X151015768Y-78426310D01*
X150874703Y-78637430D01*
X150777535Y-78872013D01*
X150728000Y-79121045D01*
X150728000Y-79374955D01*
X150777535Y-79623987D01*
X150874703Y-79858570D01*
X151015768Y-80069690D01*
X151195310Y-80249232D01*
X151255001Y-80289116D01*
X151255000Y-82617369D01*
X141670370Y-92202000D01*
X137028107Y-92202000D01*
X136836632Y-92010525D01*
X136662240Y-91894000D01*
X136836632Y-91777475D01*
X137043475Y-91570632D01*
X137205990Y-91327411D01*
X137317932Y-91057158D01*
X137375000Y-90770260D01*
X137375000Y-90477740D01*
X137317932Y-90190842D01*
X137205990Y-89920589D01*
X137043475Y-89677368D01*
X136836632Y-89470525D01*
X136662240Y-89354000D01*
X136836632Y-89237475D01*
X137043475Y-89030632D01*
X137205990Y-88787411D01*
X137317932Y-88517158D01*
X137375000Y-88230260D01*
X137375000Y-87937740D01*
X137345468Y-87789269D01*
X140736336Y-87789269D01*
X140795797Y-88023037D01*
X141034242Y-88133934D01*
X141289740Y-88196183D01*
X141552473Y-88207390D01*
X141812344Y-88167125D01*
X142059366Y-88076935D01*
X142160203Y-88023037D01*
X142219664Y-87789269D01*
X141478000Y-87047605D01*
X140736336Y-87789269D01*
X137345468Y-87789269D01*
X137317932Y-87650842D01*
X137205990Y-87380589D01*
X137043475Y-87137368D01*
X136848580Y-86942473D01*
X140138610Y-86942473D01*
X140178875Y-87202344D01*
X140269065Y-87449366D01*
X140322963Y-87550203D01*
X140556731Y-87609664D01*
X141298395Y-86868000D01*
X141657605Y-86868000D01*
X142399269Y-87609664D01*
X142633037Y-87550203D01*
X142743934Y-87311758D01*
X142806183Y-87056260D01*
X142817390Y-86793527D01*
X142777125Y-86533656D01*
X142686935Y-86286634D01*
X142633037Y-86185797D01*
X142399269Y-86126336D01*
X141657605Y-86868000D01*
X141298395Y-86868000D01*
X140556731Y-86126336D01*
X140322963Y-86185797D01*
X140212066Y-86424242D01*
X140149817Y-86679740D01*
X140138610Y-86942473D01*
X136848580Y-86942473D01*
X136836632Y-86930525D01*
X136662240Y-86814000D01*
X136836632Y-86697475D01*
X137043475Y-86490632D01*
X137205990Y-86247411D01*
X137317932Y-85977158D01*
X137375000Y-85690260D01*
X137375000Y-85397740D01*
X137317932Y-85110842D01*
X137205990Y-84840589D01*
X137043475Y-84597368D01*
X136836632Y-84390525D01*
X136662240Y-84274000D01*
X136718341Y-84236514D01*
X140143000Y-84236514D01*
X140143000Y-84499486D01*
X140194304Y-84757405D01*
X140294939Y-85000359D01*
X140441038Y-85219013D01*
X140626987Y-85404962D01*
X140845641Y-85551061D01*
X141008118Y-85618361D01*
X140896634Y-85659065D01*
X140795797Y-85712963D01*
X140736336Y-85946731D01*
X141478000Y-86688395D01*
X142219664Y-85946731D01*
X142160203Y-85712963D01*
X141952596Y-85616408D01*
X142110359Y-85551061D01*
X142329013Y-85404962D01*
X142514962Y-85219013D01*
X142661061Y-85000359D01*
X142761696Y-84757405D01*
X142813000Y-84499486D01*
X142813000Y-84236514D01*
X142761696Y-83978595D01*
X142661061Y-83735641D01*
X142514962Y-83516987D01*
X142329013Y-83331038D01*
X142110359Y-83184939D01*
X141867405Y-83084304D01*
X141609486Y-83033000D01*
X141346514Y-83033000D01*
X141088595Y-83084304D01*
X140845641Y-83184939D01*
X140626987Y-83331038D01*
X140441038Y-83516987D01*
X140294939Y-83735641D01*
X140194304Y-83978595D01*
X140143000Y-84236514D01*
X136718341Y-84236514D01*
X136836632Y-84157475D01*
X137043475Y-83950632D01*
X137205990Y-83707411D01*
X137317932Y-83437158D01*
X137375000Y-83150260D01*
X137375000Y-82857740D01*
X137317932Y-82570842D01*
X137205990Y-82300589D01*
X137043475Y-82057368D01*
X136836632Y-81850525D01*
X136662240Y-81734000D01*
X136836632Y-81617475D01*
X137043475Y-81410632D01*
X137205990Y-81167411D01*
X137317932Y-80897158D01*
X137375000Y-80610260D01*
X137375000Y-80317740D01*
X137317932Y-80030842D01*
X137205990Y-79760589D01*
X137043475Y-79517368D01*
X136836632Y-79310525D01*
X136663271Y-79194689D01*
X136738792Y-78952397D01*
X135890000Y-78103605D01*
X135041208Y-78952397D01*
X135116729Y-79194689D01*
X134943368Y-79310525D01*
X134736525Y-79517368D01*
X134574010Y-79760589D01*
X134462068Y-80030842D01*
X134405000Y-80317740D01*
X125660000Y-80317740D01*
X125660000Y-77992531D01*
X134399389Y-77992531D01*
X134441401Y-78282019D01*
X134539081Y-78557747D01*
X134612528Y-78695157D01*
X134861603Y-78772792D01*
X135710395Y-77924000D01*
X136069605Y-77924000D01*
X136918397Y-78772792D01*
X137167472Y-78695157D01*
X137293371Y-78431117D01*
X137365339Y-78147589D01*
X137380611Y-77855469D01*
X137338599Y-77565981D01*
X137240919Y-77290253D01*
X137167472Y-77152843D01*
X136918397Y-77075208D01*
X136069605Y-77924000D01*
X135710395Y-77924000D01*
X134861603Y-77075208D01*
X134612528Y-77152843D01*
X134486629Y-77416883D01*
X134414661Y-77700411D01*
X134399389Y-77992531D01*
X125660000Y-77992531D01*
X125660000Y-72697740D01*
X134405000Y-72697740D01*
X134405000Y-72990260D01*
X134462068Y-73277158D01*
X134574010Y-73547411D01*
X134736525Y-73790632D01*
X134943368Y-73997475D01*
X135117760Y-74114000D01*
X134943368Y-74230525D01*
X134736525Y-74437368D01*
X134574010Y-74680589D01*
X134462068Y-74950842D01*
X134405000Y-75237740D01*
X134405000Y-75530260D01*
X134462068Y-75817158D01*
X134574010Y-76087411D01*
X134736525Y-76330632D01*
X134943368Y-76537475D01*
X135116729Y-76653311D01*
X135041208Y-76895603D01*
X135890000Y-77744395D01*
X136738792Y-76895603D01*
X136663271Y-76653311D01*
X136836632Y-76537475D01*
X137043475Y-76330632D01*
X137147585Y-76174820D01*
X141605000Y-80632236D01*
X141605001Y-81236331D01*
X141600700Y-81280000D01*
X141617864Y-81454274D01*
X141668698Y-81621852D01*
X141751248Y-81776291D01*
X141862342Y-81911659D01*
X141896259Y-81939494D01*
X144374506Y-84417742D01*
X144402341Y-84451659D01*
X144537709Y-84562753D01*
X144692149Y-84645303D01*
X144758058Y-84665296D01*
X144859724Y-84696136D01*
X144892924Y-84699406D01*
X144990333Y-84709000D01*
X144990339Y-84709000D01*
X145033999Y-84713300D01*
X145077659Y-84709000D01*
X145934151Y-84709000D01*
X145951363Y-84734759D01*
X146151241Y-84934637D01*
X146386273Y-85091680D01*
X146647426Y-85199853D01*
X146924665Y-85255000D01*
X147207335Y-85255000D01*
X147484574Y-85199853D01*
X147745727Y-85091680D01*
X147980759Y-84934637D01*
X148180637Y-84734759D01*
X148337680Y-84499727D01*
X148445853Y-84238574D01*
X148501000Y-83961335D01*
X148501000Y-83678665D01*
X148445853Y-83401426D01*
X148337680Y-83140273D01*
X148180637Y-82905241D01*
X147980759Y-82705363D01*
X147745727Y-82548320D01*
X147484574Y-82440147D01*
X147207335Y-82385000D01*
X146924665Y-82385000D01*
X146647426Y-82440147D01*
X146386273Y-82548320D01*
X146151241Y-82705363D01*
X145951363Y-82905241D01*
X145934151Y-82931000D01*
X145402236Y-82931000D01*
X143383000Y-80911765D01*
X143383000Y-80307660D01*
X143387300Y-80264000D01*
X143383000Y-80220340D01*
X143383000Y-80220333D01*
X143380424Y-80194184D01*
X143438219Y-80136389D01*
X143492093Y-80365468D01*
X143722684Y-80471763D01*
X143969581Y-80531028D01*
X144223296Y-80540988D01*
X144474079Y-80501259D01*
X144712293Y-80413368D01*
X144801907Y-80365468D01*
X144855782Y-80136387D01*
X144147000Y-79427605D01*
X144132858Y-79441748D01*
X143953253Y-79262143D01*
X143967395Y-79248000D01*
X144326605Y-79248000D01*
X145035387Y-79956782D01*
X145264468Y-79902907D01*
X145370763Y-79672316D01*
X145430028Y-79425419D01*
X145439988Y-79171704D01*
X145400259Y-78920921D01*
X145312368Y-78682707D01*
X145264468Y-78593093D01*
X145035387Y-78539218D01*
X144326605Y-79248000D01*
X143967395Y-79248000D01*
X143258613Y-78539218D01*
X143029532Y-78593093D01*
X142923237Y-78823684D01*
X142863972Y-79070581D01*
X142854012Y-79324296D01*
X142862008Y-79374773D01*
X138073499Y-74586264D01*
X138045659Y-74552341D01*
X137910291Y-74441247D01*
X137755851Y-74358697D01*
X137588274Y-74307864D01*
X137457667Y-74295000D01*
X137457660Y-74295000D01*
X137414000Y-74290700D01*
X137370340Y-74295000D01*
X136901107Y-74295000D01*
X136836632Y-74230525D01*
X136662240Y-74114000D01*
X136836632Y-73997475D01*
X137043475Y-73790632D01*
X137205990Y-73547411D01*
X137317932Y-73277158D01*
X137375000Y-72990260D01*
X137375000Y-72697740D01*
X137317932Y-72410842D01*
X137205990Y-72140589D01*
X137043475Y-71897368D01*
X136836632Y-71690525D01*
X136593411Y-71528010D01*
X136528312Y-71501045D01*
X142858000Y-71501045D01*
X142858000Y-71754955D01*
X142907535Y-72003987D01*
X143004703Y-72238570D01*
X143145768Y-72449690D01*
X143325310Y-72629232D01*
X143536430Y-72770297D01*
X143771013Y-72867465D01*
X143924524Y-72898000D01*
X143771013Y-72928535D01*
X143536430Y-73025703D01*
X143325310Y-73166768D01*
X143145768Y-73346310D01*
X143004703Y-73557430D01*
X142907535Y-73792013D01*
X142858000Y-74041045D01*
X142858000Y-74294955D01*
X142907535Y-74543987D01*
X143004703Y-74778570D01*
X143145768Y-74989690D01*
X143325310Y-75169232D01*
X143536430Y-75310297D01*
X143771013Y-75407465D01*
X143924524Y-75438000D01*
X143771013Y-75468535D01*
X143536430Y-75565703D01*
X143325310Y-75706768D01*
X143145768Y-75886310D01*
X143004703Y-76097430D01*
X142907535Y-76332013D01*
X142858000Y-76581045D01*
X142858000Y-76834955D01*
X142907535Y-77083987D01*
X143004703Y-77318570D01*
X143145768Y-77529690D01*
X143325310Y-77709232D01*
X143536430Y-77850297D01*
X143771013Y-77947465D01*
X143924999Y-77978094D01*
X143819921Y-77994741D01*
X143581707Y-78082632D01*
X143492093Y-78130532D01*
X143438218Y-78359613D01*
X144147000Y-79068395D01*
X144855782Y-78359613D01*
X144801907Y-78130532D01*
X144571316Y-78024237D01*
X144374516Y-77976997D01*
X144522987Y-77947465D01*
X144757570Y-77850297D01*
X144968690Y-77709232D01*
X145148232Y-77529690D01*
X145289297Y-77318570D01*
X145386465Y-77083987D01*
X145436000Y-76834955D01*
X145436000Y-76581045D01*
X145386465Y-76332013D01*
X145289297Y-76097430D01*
X145148232Y-75886310D01*
X144968690Y-75706768D01*
X144757570Y-75565703D01*
X144522987Y-75468535D01*
X144369476Y-75438000D01*
X144522987Y-75407465D01*
X144757570Y-75310297D01*
X144968690Y-75169232D01*
X145148232Y-74989690D01*
X145289297Y-74778570D01*
X145386465Y-74543987D01*
X145436000Y-74294955D01*
X145436000Y-74041045D01*
X145386465Y-73792013D01*
X145289297Y-73557430D01*
X145148232Y-73346310D01*
X144968690Y-73166768D01*
X144757570Y-73025703D01*
X144522987Y-72928535D01*
X144369476Y-72898000D01*
X144522987Y-72867465D01*
X144757570Y-72770297D01*
X144968690Y-72629232D01*
X145148232Y-72449690D01*
X145289297Y-72238570D01*
X145386465Y-72003987D01*
X145436000Y-71754955D01*
X145436000Y-71501045D01*
X145386465Y-71252013D01*
X145289297Y-71017430D01*
X145148232Y-70806310D01*
X144968690Y-70626768D01*
X144757570Y-70485703D01*
X144522987Y-70388535D01*
X144273955Y-70339000D01*
X144020045Y-70339000D01*
X143771013Y-70388535D01*
X143536430Y-70485703D01*
X143325310Y-70626768D01*
X143145768Y-70806310D01*
X143004703Y-71017430D01*
X142907535Y-71252013D01*
X142858000Y-71501045D01*
X136528312Y-71501045D01*
X136323158Y-71416068D01*
X136036260Y-71359000D01*
X135743740Y-71359000D01*
X135456842Y-71416068D01*
X135186589Y-71528010D01*
X134943368Y-71690525D01*
X134736525Y-71897368D01*
X134574010Y-72140589D01*
X134462068Y-72410842D01*
X134405000Y-72697740D01*
X125660000Y-72697740D01*
X125660000Y-65468702D01*
X148030903Y-65468702D01*
X148102486Y-65712671D01*
X148357996Y-65833571D01*
X148632184Y-65902300D01*
X148914512Y-65916217D01*
X149194130Y-65874787D01*
X149460292Y-65779603D01*
X149585514Y-65712671D01*
X149657097Y-65468702D01*
X148844000Y-64655605D01*
X148030903Y-65468702D01*
X125660000Y-65468702D01*
X125660000Y-64546512D01*
X147403783Y-64546512D01*
X147445213Y-64826130D01*
X147540397Y-65092292D01*
X147607329Y-65217514D01*
X147851298Y-65289097D01*
X148664395Y-64476000D01*
X149023605Y-64476000D01*
X149836702Y-65289097D01*
X150080671Y-65217514D01*
X150201571Y-64962004D01*
X150270300Y-64687816D01*
X150284217Y-64405488D01*
X150242787Y-64125870D01*
X150147603Y-63859708D01*
X150080671Y-63734486D01*
X149836702Y-63662903D01*
X149023605Y-64476000D01*
X148664395Y-64476000D01*
X147851298Y-63662903D01*
X147607329Y-63734486D01*
X147486429Y-63989996D01*
X147417700Y-64264184D01*
X147403783Y-64546512D01*
X125660000Y-64546512D01*
X125660000Y-61176000D01*
X147405928Y-61176000D01*
X147405928Y-62776000D01*
X147418188Y-62900482D01*
X147454498Y-63020180D01*
X147513463Y-63130494D01*
X147592815Y-63227185D01*
X147689506Y-63306537D01*
X147799820Y-63365502D01*
X147919518Y-63401812D01*
X148044000Y-63414072D01*
X148051215Y-63414072D01*
X148030903Y-63483298D01*
X148844000Y-64296395D01*
X149657097Y-63483298D01*
X149636785Y-63414072D01*
X149644000Y-63414072D01*
X149768482Y-63401812D01*
X149888180Y-63365502D01*
X149998494Y-63306537D01*
X150095185Y-63227185D01*
X150174537Y-63130494D01*
X150233502Y-63020180D01*
X150269812Y-62900482D01*
X150282072Y-62776000D01*
X150282072Y-62554000D01*
X159197928Y-62554000D01*
X159197928Y-64954000D01*
X159210188Y-65078482D01*
X159246498Y-65198180D01*
X159305463Y-65308494D01*
X159384815Y-65405185D01*
X159481506Y-65484537D01*
X159591820Y-65543502D01*
X159711518Y-65579812D01*
X159836000Y-65592072D01*
X162236000Y-65592072D01*
X162360482Y-65579812D01*
X162480180Y-65543502D01*
X162590494Y-65484537D01*
X162687185Y-65405185D01*
X162766537Y-65308494D01*
X162825502Y-65198180D01*
X162861812Y-65078482D01*
X162874072Y-64954000D01*
X162874072Y-63754000D01*
X169352122Y-63754000D01*
X169387552Y-64113723D01*
X169492479Y-64459622D01*
X169662871Y-64778404D01*
X169892181Y-65057819D01*
X170171596Y-65287129D01*
X170490378Y-65457521D01*
X170836277Y-65562448D01*
X171105861Y-65589000D01*
X171286139Y-65589000D01*
X171555723Y-65562448D01*
X171901622Y-65457521D01*
X172220404Y-65287129D01*
X172499819Y-65057819D01*
X172729129Y-64778404D01*
X172899521Y-64459622D01*
X173004448Y-64113723D01*
X173039878Y-63754000D01*
X173004448Y-63394277D01*
X172899521Y-63048378D01*
X172729129Y-62729596D01*
X172499819Y-62450181D01*
X172220404Y-62220871D01*
X171901622Y-62050479D01*
X171555723Y-61945552D01*
X171286139Y-61919000D01*
X171105861Y-61919000D01*
X170836277Y-61945552D01*
X170490378Y-62050479D01*
X170171596Y-62220871D01*
X169892181Y-62450181D01*
X169662871Y-62729596D01*
X169492479Y-63048378D01*
X169387552Y-63394277D01*
X169352122Y-63754000D01*
X162874072Y-63754000D01*
X162874072Y-62554000D01*
X162861812Y-62429518D01*
X162825502Y-62309820D01*
X162766537Y-62199506D01*
X162687185Y-62102815D01*
X162590494Y-62023463D01*
X162480180Y-61964498D01*
X162360482Y-61928188D01*
X162236000Y-61915928D01*
X159836000Y-61915928D01*
X159711518Y-61928188D01*
X159591820Y-61964498D01*
X159481506Y-62023463D01*
X159384815Y-62102815D01*
X159305463Y-62199506D01*
X159246498Y-62309820D01*
X159210188Y-62429518D01*
X159197928Y-62554000D01*
X150282072Y-62554000D01*
X150282072Y-61176000D01*
X150269812Y-61051518D01*
X150233502Y-60931820D01*
X150174537Y-60821506D01*
X150095185Y-60724815D01*
X149998494Y-60645463D01*
X149888180Y-60586498D01*
X149768482Y-60550188D01*
X149644000Y-60537928D01*
X148044000Y-60537928D01*
X147919518Y-60550188D01*
X147799820Y-60586498D01*
X147689506Y-60645463D01*
X147592815Y-60724815D01*
X147513463Y-60821506D01*
X147454498Y-60931820D01*
X147418188Y-61051518D01*
X147405928Y-61176000D01*
X125660000Y-61176000D01*
X125660000Y-59548665D01*
X155537000Y-59548665D01*
X155537000Y-59831335D01*
X155592147Y-60108574D01*
X155700320Y-60369727D01*
X155857363Y-60604759D01*
X156057241Y-60804637D01*
X156292273Y-60961680D01*
X156553426Y-61069853D01*
X156830665Y-61125000D01*
X157113335Y-61125000D01*
X157390574Y-61069853D01*
X157651727Y-60961680D01*
X157886759Y-60804637D01*
X158086637Y-60604759D01*
X158243680Y-60369727D01*
X158351853Y-60108574D01*
X158407000Y-59831335D01*
X158407000Y-59548665D01*
X158351853Y-59271426D01*
X158243680Y-59010273D01*
X158086637Y-58775241D01*
X157886759Y-58575363D01*
X157651727Y-58418320D01*
X157390574Y-58310147D01*
X157113335Y-58255000D01*
X156830665Y-58255000D01*
X156553426Y-58310147D01*
X156292273Y-58418320D01*
X156057241Y-58575363D01*
X155857363Y-58775241D01*
X155700320Y-59010273D01*
X155592147Y-59271426D01*
X155537000Y-59548665D01*
X125660000Y-59548665D01*
X125660000Y-54498122D01*
X136994825Y-54498122D01*
X137059425Y-54711094D01*
X137209469Y-55016329D01*
X137416178Y-55286427D01*
X137671609Y-55511008D01*
X137965946Y-55681442D01*
X138287877Y-55791179D01*
X138557000Y-55673600D01*
X138557000Y-54229000D01*
X138811000Y-54229000D01*
X138811000Y-55673600D01*
X139080123Y-55791179D01*
X139402054Y-55681442D01*
X139696391Y-55511008D01*
X139951822Y-55286427D01*
X140158531Y-55016329D01*
X140308575Y-54711094D01*
X140373175Y-54498122D01*
X140255125Y-54229000D01*
X138811000Y-54229000D01*
X138557000Y-54229000D01*
X137112875Y-54229000D01*
X136994825Y-54498122D01*
X125660000Y-54498122D01*
X125660000Y-53705878D01*
X136994825Y-53705878D01*
X137112875Y-53975000D01*
X138557000Y-53975000D01*
X138557000Y-52530400D01*
X138811000Y-52530400D01*
X138811000Y-53975000D01*
X140255125Y-53975000D01*
X140373175Y-53705878D01*
X140308575Y-53492906D01*
X140158531Y-53187671D01*
X140016435Y-53002000D01*
X144565928Y-53002000D01*
X144565928Y-55202000D01*
X144578188Y-55326482D01*
X144614498Y-55446180D01*
X144673463Y-55556494D01*
X144752815Y-55653185D01*
X144849506Y-55732537D01*
X144959820Y-55791502D01*
X145079518Y-55827812D01*
X145204000Y-55840072D01*
X147404000Y-55840072D01*
X147528482Y-55827812D01*
X147648180Y-55791502D01*
X147758494Y-55732537D01*
X147855185Y-55653185D01*
X147934537Y-55556494D01*
X147993502Y-55446180D01*
X148029812Y-55326482D01*
X148042072Y-55202000D01*
X148042072Y-53002000D01*
X148029812Y-52877518D01*
X147993502Y-52757820D01*
X147934537Y-52647506D01*
X147855185Y-52550815D01*
X147758494Y-52471463D01*
X147648180Y-52412498D01*
X147528482Y-52376188D01*
X147404000Y-52363928D01*
X145204000Y-52363928D01*
X145079518Y-52376188D01*
X144959820Y-52412498D01*
X144849506Y-52471463D01*
X144752815Y-52550815D01*
X144673463Y-52647506D01*
X144614498Y-52757820D01*
X144578188Y-52877518D01*
X144565928Y-53002000D01*
X140016435Y-53002000D01*
X139951822Y-52917573D01*
X139696391Y-52692992D01*
X139402054Y-52522558D01*
X139080123Y-52412821D01*
X138811000Y-52530400D01*
X138557000Y-52530400D01*
X138287877Y-52412821D01*
X137965946Y-52522558D01*
X137671609Y-52692992D01*
X137416178Y-52917573D01*
X137209469Y-53187671D01*
X137059425Y-53492906D01*
X136994825Y-53705878D01*
X125660000Y-53705878D01*
X125660000Y-48293872D01*
X126289000Y-48293872D01*
X126289000Y-48734128D01*
X126374890Y-49165925D01*
X126543369Y-49572669D01*
X126787962Y-49938729D01*
X127099271Y-50250038D01*
X127465331Y-50494631D01*
X127872075Y-50663110D01*
X128303872Y-50749000D01*
X128744128Y-50749000D01*
X129175925Y-50663110D01*
X129582669Y-50494631D01*
X129948729Y-50250038D01*
X130260038Y-49938729D01*
X130504631Y-49572669D01*
X130522305Y-49530000D01*
X155530057Y-49530000D01*
X155557764Y-49811309D01*
X155639818Y-50081808D01*
X155773068Y-50331101D01*
X155952392Y-50549608D01*
X156170899Y-50728932D01*
X156420192Y-50862182D01*
X156690691Y-50944236D01*
X156901508Y-50965000D01*
X157042492Y-50965000D01*
X157253309Y-50944236D01*
X157523808Y-50862182D01*
X157773101Y-50728932D01*
X157991608Y-50549608D01*
X158170932Y-50331101D01*
X158304182Y-50081808D01*
X158386236Y-49811309D01*
X158413943Y-49530000D01*
X158386236Y-49248691D01*
X158304182Y-48978192D01*
X158170932Y-48728899D01*
X157991608Y-48510392D01*
X157773101Y-48331068D01*
X157703513Y-48293872D01*
X174295000Y-48293872D01*
X174295000Y-48734128D01*
X174380890Y-49165925D01*
X174549369Y-49572669D01*
X174793962Y-49938729D01*
X175105271Y-50250038D01*
X175471331Y-50494631D01*
X175878075Y-50663110D01*
X176309872Y-50749000D01*
X176750128Y-50749000D01*
X177181925Y-50663110D01*
X177588669Y-50494631D01*
X177954729Y-50250038D01*
X178266038Y-49938729D01*
X178510631Y-49572669D01*
X178679110Y-49165925D01*
X178765000Y-48734128D01*
X178765000Y-48293872D01*
X178679110Y-47862075D01*
X178510631Y-47455331D01*
X178266038Y-47089271D01*
X177954729Y-46777962D01*
X177588669Y-46533369D01*
X177181925Y-46364890D01*
X176750128Y-46279000D01*
X176309872Y-46279000D01*
X175878075Y-46364890D01*
X175471331Y-46533369D01*
X175105271Y-46777962D01*
X174793962Y-47089271D01*
X174549369Y-47455331D01*
X174380890Y-47862075D01*
X174295000Y-48293872D01*
X157703513Y-48293872D01*
X157523808Y-48197818D01*
X157253309Y-48115764D01*
X157042492Y-48095000D01*
X156901508Y-48095000D01*
X156690691Y-48115764D01*
X156420192Y-48197818D01*
X156170899Y-48331068D01*
X155952392Y-48510392D01*
X155773068Y-48728899D01*
X155639818Y-48978192D01*
X155557764Y-49248691D01*
X155530057Y-49530000D01*
X130522305Y-49530000D01*
X130673110Y-49165925D01*
X130759000Y-48734128D01*
X130759000Y-48293872D01*
X130673110Y-47862075D01*
X130504631Y-47455331D01*
X130260038Y-47089271D01*
X129948729Y-46777962D01*
X129582669Y-46533369D01*
X129175925Y-46364890D01*
X128744128Y-46279000D01*
X128303872Y-46279000D01*
X127872075Y-46364890D01*
X127465331Y-46533369D01*
X127099271Y-46777962D01*
X126787962Y-47089271D01*
X126543369Y-47455331D01*
X126374890Y-47862075D01*
X126289000Y-48293872D01*
X125660000Y-48293872D01*
X125660000Y-45660000D01*
X179340000Y-45660000D01*
X179340001Y-119340000D01*
M02*
