G04 #@! TF.GenerationSoftware,KiCad,Pcbnew,(5.1.4)-1*
G04 #@! TF.CreationDate,2019-12-13T13:31:58+01:00*
G04 #@! TF.ProjectId,LIN bus esp32,4c494e20-6275-4732-9065-737033322e6b,2*
G04 #@! TF.SameCoordinates,Original*
G04 #@! TF.FileFunction,Soldermask,Top*
G04 #@! TF.FilePolarity,Negative*
%FSLAX46Y46*%
G04 Gerber Fmt 4.6, Leading zero omitted, Abs format (unit mm)*
G04 Created by KiCad (PCBNEW (5.1.4)-1) date 2019-12-13 13:31:58*
%MOMM*%
%LPD*%
G04 APERTURE LIST*
%ADD10C,1.700000*%
%ADD11C,4.000000*%
%ADD12C,1.600000*%
%ADD13R,1.600000X1.600000*%
%ADD14O,1.700000X1.700000*%
%ADD15R,1.700000X1.700000*%
%ADD16O,1.600000X1.600000*%
%ADD17C,1.308000*%
%ADD18R,1.308000X1.308000*%
%ADD19O,2.400000X2.400000*%
%ADD20R,2.400000X2.400000*%
%ADD21O,2.200000X2.200000*%
%ADD22R,2.200000X2.200000*%
%ADD23C,1.400000*%
%ADD24C,3.200000*%
G04 APERTURE END LIST*
D10*
X135890000Y-72844000D03*
X135890000Y-75384000D03*
X135890000Y-77924000D03*
X135890000Y-80464000D03*
X135890000Y-83004000D03*
X135890000Y-85544000D03*
X135890000Y-88084000D03*
X135890000Y-90624000D03*
X135890000Y-93164000D03*
X135890000Y-95704000D03*
X161290000Y-72844000D03*
X161290000Y-75384000D03*
X161290000Y-77924000D03*
X161290000Y-80464000D03*
X161290000Y-83004000D03*
X161290000Y-85544000D03*
X161290000Y-88084000D03*
X161290000Y-90624000D03*
X161290000Y-93164000D03*
X161290000Y-95704000D03*
D11*
X136138000Y-113608000D03*
X161138000Y-113608000D03*
D12*
X144483000Y-115028000D03*
X147253000Y-115028000D03*
X150023000Y-115028000D03*
X152793000Y-115028000D03*
X143098000Y-112188000D03*
X145868000Y-112188000D03*
X148638000Y-112188000D03*
X151408000Y-112188000D03*
D13*
X154178000Y-112188000D03*
D14*
X167640000Y-109474000D03*
D15*
X170180000Y-109474000D03*
D12*
X148844000Y-64476000D03*
D13*
X148844000Y-61976000D03*
D16*
X152146000Y-86868000D03*
D12*
X152146000Y-97028000D03*
D16*
X156972000Y-49530000D03*
D12*
X156972000Y-59690000D03*
D16*
X157226000Y-83820000D03*
D12*
X147066000Y-83820000D03*
D14*
X169164000Y-91694000D03*
D15*
X166624000Y-91694000D03*
D17*
X144147000Y-74168000D03*
X144147000Y-76708000D03*
X144147000Y-71628000D03*
X144147000Y-79248000D03*
D18*
X152017000Y-71628000D03*
D17*
X152017000Y-79248000D03*
X152017000Y-74168000D03*
X152017000Y-76708000D03*
D19*
X167132000Y-72644000D03*
D20*
X167132000Y-85344000D03*
D19*
X162306000Y-101346000D03*
D20*
X152146000Y-101346000D03*
D19*
X171196000Y-63754000D03*
D20*
X161036000Y-63754000D03*
D21*
X138684000Y-54102000D03*
D22*
X146304000Y-54102000D03*
D23*
X141478000Y-84368000D03*
X141478000Y-86868000D03*
X156464000Y-75478000D03*
X156464000Y-77978000D03*
D24*
X128524000Y-116332000D03*
X128524000Y-48514000D03*
X176530000Y-48514000D03*
X176276000Y-116332000D03*
M02*
