G04 #@! TF.GenerationSoftware,KiCad,Pcbnew,(5.1.4)-1*
G04 #@! TF.CreationDate,2019-12-12T15:19:51+01:00*
G04 #@! TF.ProjectId,12V power card,31325620-706f-4776-9572-20636172642e,rev?*
G04 #@! TF.SameCoordinates,Original*
G04 #@! TF.FileFunction,Copper,L2,Bot*
G04 #@! TF.FilePolarity,Positive*
%FSLAX46Y46*%
G04 Gerber Fmt 4.6, Leading zero omitted, Abs format (unit mm)*
G04 Created by KiCad (PCBNEW (5.1.4)-1) date 2019-12-12 15:19:51*
%MOMM*%
%LPD*%
G04 APERTURE LIST*
%ADD10O,1.700000X1.700000*%
%ADD11R,1.700000X1.700000*%
%ADD12C,1.725000*%
%ADD13R,1.725000X1.725000*%
%ADD14C,0.762000*%
%ADD15C,0.254000*%
G04 APERTURE END LIST*
D10*
X71250000Y-107790000D03*
D11*
X71250000Y-105250000D03*
D10*
X121500000Y-107790000D03*
D11*
X121500000Y-105250000D03*
D10*
X171500000Y-107790000D03*
D11*
X171500000Y-105250000D03*
D10*
X221500000Y-107790000D03*
D11*
X221500000Y-105250000D03*
D12*
X241000000Y-104460000D03*
D13*
X241000000Y-107000000D03*
D14*
X241000000Y-108500000D02*
X241000000Y-107000000D01*
X240500000Y-109000000D02*
X241000000Y-108500000D01*
X228000000Y-109000000D02*
X240500000Y-109000000D01*
X221500000Y-105250000D02*
X224250000Y-105250000D01*
X224250000Y-105250000D02*
X228000000Y-109000000D01*
X173750000Y-103000000D02*
X171500000Y-105250000D01*
X229750000Y-103000000D02*
X173750000Y-103000000D01*
X233750000Y-107000000D02*
X229750000Y-103000000D01*
X241000000Y-107000000D02*
X233750000Y-107000000D01*
D15*
G36*
X245340001Y-109340000D02*
G01*
X241596840Y-109340000D01*
X241683127Y-109253713D01*
X241721896Y-109221896D01*
X241848860Y-109067190D01*
X241943202Y-108890687D01*
X242001298Y-108699171D01*
X242016000Y-108549902D01*
X242016000Y-108549901D01*
X242020915Y-108500000D01*
X242018813Y-108478656D01*
X242106680Y-108452002D01*
X242216994Y-108393037D01*
X242313685Y-108313685D01*
X242393037Y-108216994D01*
X242452002Y-108106680D01*
X242488312Y-107986982D01*
X242500572Y-107862500D01*
X242500572Y-106137500D01*
X242488312Y-106013018D01*
X242452002Y-105893320D01*
X242393037Y-105783006D01*
X242313685Y-105686315D01*
X242216994Y-105606963D01*
X242106680Y-105547998D01*
X241986982Y-105511688D01*
X241862500Y-105499428D01*
X241857047Y-105499428D01*
X241857714Y-105497319D01*
X241000000Y-104639605D01*
X240142286Y-105497319D01*
X240142953Y-105499428D01*
X240137500Y-105499428D01*
X240013018Y-105511688D01*
X239893320Y-105547998D01*
X239783006Y-105606963D01*
X239686315Y-105686315D01*
X239606963Y-105783006D01*
X239547998Y-105893320D01*
X239520491Y-105984000D01*
X234170841Y-105984000D01*
X232714878Y-104528037D01*
X239496792Y-104528037D01*
X239538949Y-104819991D01*
X239637253Y-105098111D01*
X239712330Y-105238566D01*
X239962681Y-105317714D01*
X240820395Y-104460000D01*
X241179605Y-104460000D01*
X242037319Y-105317714D01*
X242287670Y-105238566D01*
X242414820Y-104972394D01*
X242487597Y-104686532D01*
X242503208Y-104391963D01*
X242461051Y-104100009D01*
X242362747Y-103821889D01*
X242287670Y-103681434D01*
X242037319Y-103602286D01*
X241179605Y-104460000D01*
X240820395Y-104460000D01*
X239962681Y-103602286D01*
X239712330Y-103681434D01*
X239585180Y-103947606D01*
X239512403Y-104233468D01*
X239496792Y-104528037D01*
X232714878Y-104528037D01*
X231609522Y-103422681D01*
X240142286Y-103422681D01*
X241000000Y-104280395D01*
X241857714Y-103422681D01*
X241778566Y-103172330D01*
X241512394Y-103045180D01*
X241226532Y-102972403D01*
X240931963Y-102956792D01*
X240640009Y-102998949D01*
X240361889Y-103097253D01*
X240221434Y-103172330D01*
X240142286Y-103422681D01*
X231609522Y-103422681D01*
X230503712Y-102316872D01*
X230471896Y-102278104D01*
X230317190Y-102151140D01*
X230140687Y-102056798D01*
X229949171Y-101998702D01*
X229799902Y-101984000D01*
X229750000Y-101979085D01*
X229700098Y-101984000D01*
X173799902Y-101984000D01*
X173750000Y-101979085D01*
X173700098Y-101984000D01*
X173550829Y-101998702D01*
X173359313Y-102056798D01*
X173182810Y-102151140D01*
X173028104Y-102278104D01*
X172996292Y-102316867D01*
X171551232Y-103761928D01*
X170650000Y-103761928D01*
X170525518Y-103774188D01*
X170405820Y-103810498D01*
X170295506Y-103869463D01*
X170198815Y-103948815D01*
X170119463Y-104045506D01*
X170060498Y-104155820D01*
X170024188Y-104275518D01*
X170011928Y-104400000D01*
X170011928Y-106100000D01*
X170024188Y-106224482D01*
X170060498Y-106344180D01*
X170119463Y-106454494D01*
X170198815Y-106551185D01*
X170295506Y-106630537D01*
X170405820Y-106689502D01*
X170486466Y-106713966D01*
X170402412Y-106789731D01*
X170228359Y-107023080D01*
X170103175Y-107285901D01*
X170058524Y-107433110D01*
X170179845Y-107663000D01*
X171373000Y-107663000D01*
X171373000Y-107643000D01*
X171627000Y-107643000D01*
X171627000Y-107663000D01*
X172820155Y-107663000D01*
X172941476Y-107433110D01*
X172896825Y-107285901D01*
X172771641Y-107023080D01*
X172597588Y-106789731D01*
X172513534Y-106713966D01*
X172594180Y-106689502D01*
X172704494Y-106630537D01*
X172801185Y-106551185D01*
X172880537Y-106454494D01*
X172939502Y-106344180D01*
X172975812Y-106224482D01*
X172988072Y-106100000D01*
X172988072Y-105198768D01*
X174170841Y-104016000D01*
X220143678Y-104016000D01*
X220119463Y-104045506D01*
X220060498Y-104155820D01*
X220024188Y-104275518D01*
X220011928Y-104400000D01*
X220011928Y-106100000D01*
X220024188Y-106224482D01*
X220060498Y-106344180D01*
X220119463Y-106454494D01*
X220198815Y-106551185D01*
X220295506Y-106630537D01*
X220405820Y-106689502D01*
X220486466Y-106713966D01*
X220402412Y-106789731D01*
X220228359Y-107023080D01*
X220103175Y-107285901D01*
X220058524Y-107433110D01*
X220179845Y-107663000D01*
X221373000Y-107663000D01*
X221373000Y-107643000D01*
X221627000Y-107643000D01*
X221627000Y-107663000D01*
X222820155Y-107663000D01*
X222941476Y-107433110D01*
X222896825Y-107285901D01*
X222771641Y-107023080D01*
X222597588Y-106789731D01*
X222513534Y-106713966D01*
X222594180Y-106689502D01*
X222704494Y-106630537D01*
X222801185Y-106551185D01*
X222880537Y-106454494D01*
X222939502Y-106344180D01*
X222963218Y-106266000D01*
X223829160Y-106266000D01*
X226903159Y-109340000D01*
X60660000Y-109340000D01*
X60660000Y-108146890D01*
X69808524Y-108146890D01*
X69853175Y-108294099D01*
X69978359Y-108556920D01*
X70152412Y-108790269D01*
X70368645Y-108985178D01*
X70618748Y-109134157D01*
X70893109Y-109231481D01*
X71123000Y-109110814D01*
X71123000Y-107917000D01*
X71377000Y-107917000D01*
X71377000Y-109110814D01*
X71606891Y-109231481D01*
X71881252Y-109134157D01*
X72131355Y-108985178D01*
X72347588Y-108790269D01*
X72521641Y-108556920D01*
X72646825Y-108294099D01*
X72691476Y-108146890D01*
X120058524Y-108146890D01*
X120103175Y-108294099D01*
X120228359Y-108556920D01*
X120402412Y-108790269D01*
X120618645Y-108985178D01*
X120868748Y-109134157D01*
X121143109Y-109231481D01*
X121373000Y-109110814D01*
X121373000Y-107917000D01*
X121627000Y-107917000D01*
X121627000Y-109110814D01*
X121856891Y-109231481D01*
X122131252Y-109134157D01*
X122381355Y-108985178D01*
X122597588Y-108790269D01*
X122771641Y-108556920D01*
X122896825Y-108294099D01*
X122941476Y-108146890D01*
X170058524Y-108146890D01*
X170103175Y-108294099D01*
X170228359Y-108556920D01*
X170402412Y-108790269D01*
X170618645Y-108985178D01*
X170868748Y-109134157D01*
X171143109Y-109231481D01*
X171373000Y-109110814D01*
X171373000Y-107917000D01*
X171627000Y-107917000D01*
X171627000Y-109110814D01*
X171856891Y-109231481D01*
X172131252Y-109134157D01*
X172381355Y-108985178D01*
X172597588Y-108790269D01*
X172771641Y-108556920D01*
X172896825Y-108294099D01*
X172941476Y-108146890D01*
X220058524Y-108146890D01*
X220103175Y-108294099D01*
X220228359Y-108556920D01*
X220402412Y-108790269D01*
X220618645Y-108985178D01*
X220868748Y-109134157D01*
X221143109Y-109231481D01*
X221373000Y-109110814D01*
X221373000Y-107917000D01*
X221627000Y-107917000D01*
X221627000Y-109110814D01*
X221856891Y-109231481D01*
X222131252Y-109134157D01*
X222381355Y-108985178D01*
X222597588Y-108790269D01*
X222771641Y-108556920D01*
X222896825Y-108294099D01*
X222941476Y-108146890D01*
X222820155Y-107917000D01*
X221627000Y-107917000D01*
X221373000Y-107917000D01*
X220179845Y-107917000D01*
X220058524Y-108146890D01*
X172941476Y-108146890D01*
X172820155Y-107917000D01*
X171627000Y-107917000D01*
X171373000Y-107917000D01*
X170179845Y-107917000D01*
X170058524Y-108146890D01*
X122941476Y-108146890D01*
X122820155Y-107917000D01*
X121627000Y-107917000D01*
X121373000Y-107917000D01*
X120179845Y-107917000D01*
X120058524Y-108146890D01*
X72691476Y-108146890D01*
X72570155Y-107917000D01*
X71377000Y-107917000D01*
X71123000Y-107917000D01*
X69929845Y-107917000D01*
X69808524Y-108146890D01*
X60660000Y-108146890D01*
X60660000Y-104400000D01*
X69761928Y-104400000D01*
X69761928Y-106100000D01*
X69774188Y-106224482D01*
X69810498Y-106344180D01*
X69869463Y-106454494D01*
X69948815Y-106551185D01*
X70045506Y-106630537D01*
X70155820Y-106689502D01*
X70236466Y-106713966D01*
X70152412Y-106789731D01*
X69978359Y-107023080D01*
X69853175Y-107285901D01*
X69808524Y-107433110D01*
X69929845Y-107663000D01*
X71123000Y-107663000D01*
X71123000Y-107643000D01*
X71377000Y-107643000D01*
X71377000Y-107663000D01*
X72570155Y-107663000D01*
X72691476Y-107433110D01*
X72646825Y-107285901D01*
X72521641Y-107023080D01*
X72347588Y-106789731D01*
X72263534Y-106713966D01*
X72344180Y-106689502D01*
X72454494Y-106630537D01*
X72551185Y-106551185D01*
X72630537Y-106454494D01*
X72689502Y-106344180D01*
X72725812Y-106224482D01*
X72738072Y-106100000D01*
X72738072Y-104400000D01*
X120011928Y-104400000D01*
X120011928Y-106100000D01*
X120024188Y-106224482D01*
X120060498Y-106344180D01*
X120119463Y-106454494D01*
X120198815Y-106551185D01*
X120295506Y-106630537D01*
X120405820Y-106689502D01*
X120486466Y-106713966D01*
X120402412Y-106789731D01*
X120228359Y-107023080D01*
X120103175Y-107285901D01*
X120058524Y-107433110D01*
X120179845Y-107663000D01*
X121373000Y-107663000D01*
X121373000Y-107643000D01*
X121627000Y-107643000D01*
X121627000Y-107663000D01*
X122820155Y-107663000D01*
X122941476Y-107433110D01*
X122896825Y-107285901D01*
X122771641Y-107023080D01*
X122597588Y-106789731D01*
X122513534Y-106713966D01*
X122594180Y-106689502D01*
X122704494Y-106630537D01*
X122801185Y-106551185D01*
X122880537Y-106454494D01*
X122939502Y-106344180D01*
X122975812Y-106224482D01*
X122988072Y-106100000D01*
X122988072Y-104400000D01*
X122975812Y-104275518D01*
X122939502Y-104155820D01*
X122880537Y-104045506D01*
X122801185Y-103948815D01*
X122704494Y-103869463D01*
X122594180Y-103810498D01*
X122474482Y-103774188D01*
X122350000Y-103761928D01*
X120650000Y-103761928D01*
X120525518Y-103774188D01*
X120405820Y-103810498D01*
X120295506Y-103869463D01*
X120198815Y-103948815D01*
X120119463Y-104045506D01*
X120060498Y-104155820D01*
X120024188Y-104275518D01*
X120011928Y-104400000D01*
X72738072Y-104400000D01*
X72725812Y-104275518D01*
X72689502Y-104155820D01*
X72630537Y-104045506D01*
X72551185Y-103948815D01*
X72454494Y-103869463D01*
X72344180Y-103810498D01*
X72224482Y-103774188D01*
X72100000Y-103761928D01*
X70400000Y-103761928D01*
X70275518Y-103774188D01*
X70155820Y-103810498D01*
X70045506Y-103869463D01*
X69948815Y-103948815D01*
X69869463Y-104045506D01*
X69810498Y-104155820D01*
X69774188Y-104275518D01*
X69761928Y-104400000D01*
X60660000Y-104400000D01*
X60660000Y-100660000D01*
X245340000Y-100660000D01*
X245340001Y-109340000D01*
X245340001Y-109340000D01*
G37*
X245340001Y-109340000D02*
X241596840Y-109340000D01*
X241683127Y-109253713D01*
X241721896Y-109221896D01*
X241848860Y-109067190D01*
X241943202Y-108890687D01*
X242001298Y-108699171D01*
X242016000Y-108549902D01*
X242016000Y-108549901D01*
X242020915Y-108500000D01*
X242018813Y-108478656D01*
X242106680Y-108452002D01*
X242216994Y-108393037D01*
X242313685Y-108313685D01*
X242393037Y-108216994D01*
X242452002Y-108106680D01*
X242488312Y-107986982D01*
X242500572Y-107862500D01*
X242500572Y-106137500D01*
X242488312Y-106013018D01*
X242452002Y-105893320D01*
X242393037Y-105783006D01*
X242313685Y-105686315D01*
X242216994Y-105606963D01*
X242106680Y-105547998D01*
X241986982Y-105511688D01*
X241862500Y-105499428D01*
X241857047Y-105499428D01*
X241857714Y-105497319D01*
X241000000Y-104639605D01*
X240142286Y-105497319D01*
X240142953Y-105499428D01*
X240137500Y-105499428D01*
X240013018Y-105511688D01*
X239893320Y-105547998D01*
X239783006Y-105606963D01*
X239686315Y-105686315D01*
X239606963Y-105783006D01*
X239547998Y-105893320D01*
X239520491Y-105984000D01*
X234170841Y-105984000D01*
X232714878Y-104528037D01*
X239496792Y-104528037D01*
X239538949Y-104819991D01*
X239637253Y-105098111D01*
X239712330Y-105238566D01*
X239962681Y-105317714D01*
X240820395Y-104460000D01*
X241179605Y-104460000D01*
X242037319Y-105317714D01*
X242287670Y-105238566D01*
X242414820Y-104972394D01*
X242487597Y-104686532D01*
X242503208Y-104391963D01*
X242461051Y-104100009D01*
X242362747Y-103821889D01*
X242287670Y-103681434D01*
X242037319Y-103602286D01*
X241179605Y-104460000D01*
X240820395Y-104460000D01*
X239962681Y-103602286D01*
X239712330Y-103681434D01*
X239585180Y-103947606D01*
X239512403Y-104233468D01*
X239496792Y-104528037D01*
X232714878Y-104528037D01*
X231609522Y-103422681D01*
X240142286Y-103422681D01*
X241000000Y-104280395D01*
X241857714Y-103422681D01*
X241778566Y-103172330D01*
X241512394Y-103045180D01*
X241226532Y-102972403D01*
X240931963Y-102956792D01*
X240640009Y-102998949D01*
X240361889Y-103097253D01*
X240221434Y-103172330D01*
X240142286Y-103422681D01*
X231609522Y-103422681D01*
X230503712Y-102316872D01*
X230471896Y-102278104D01*
X230317190Y-102151140D01*
X230140687Y-102056798D01*
X229949171Y-101998702D01*
X229799902Y-101984000D01*
X229750000Y-101979085D01*
X229700098Y-101984000D01*
X173799902Y-101984000D01*
X173750000Y-101979085D01*
X173700098Y-101984000D01*
X173550829Y-101998702D01*
X173359313Y-102056798D01*
X173182810Y-102151140D01*
X173028104Y-102278104D01*
X172996292Y-102316867D01*
X171551232Y-103761928D01*
X170650000Y-103761928D01*
X170525518Y-103774188D01*
X170405820Y-103810498D01*
X170295506Y-103869463D01*
X170198815Y-103948815D01*
X170119463Y-104045506D01*
X170060498Y-104155820D01*
X170024188Y-104275518D01*
X170011928Y-104400000D01*
X170011928Y-106100000D01*
X170024188Y-106224482D01*
X170060498Y-106344180D01*
X170119463Y-106454494D01*
X170198815Y-106551185D01*
X170295506Y-106630537D01*
X170405820Y-106689502D01*
X170486466Y-106713966D01*
X170402412Y-106789731D01*
X170228359Y-107023080D01*
X170103175Y-107285901D01*
X170058524Y-107433110D01*
X170179845Y-107663000D01*
X171373000Y-107663000D01*
X171373000Y-107643000D01*
X171627000Y-107643000D01*
X171627000Y-107663000D01*
X172820155Y-107663000D01*
X172941476Y-107433110D01*
X172896825Y-107285901D01*
X172771641Y-107023080D01*
X172597588Y-106789731D01*
X172513534Y-106713966D01*
X172594180Y-106689502D01*
X172704494Y-106630537D01*
X172801185Y-106551185D01*
X172880537Y-106454494D01*
X172939502Y-106344180D01*
X172975812Y-106224482D01*
X172988072Y-106100000D01*
X172988072Y-105198768D01*
X174170841Y-104016000D01*
X220143678Y-104016000D01*
X220119463Y-104045506D01*
X220060498Y-104155820D01*
X220024188Y-104275518D01*
X220011928Y-104400000D01*
X220011928Y-106100000D01*
X220024188Y-106224482D01*
X220060498Y-106344180D01*
X220119463Y-106454494D01*
X220198815Y-106551185D01*
X220295506Y-106630537D01*
X220405820Y-106689502D01*
X220486466Y-106713966D01*
X220402412Y-106789731D01*
X220228359Y-107023080D01*
X220103175Y-107285901D01*
X220058524Y-107433110D01*
X220179845Y-107663000D01*
X221373000Y-107663000D01*
X221373000Y-107643000D01*
X221627000Y-107643000D01*
X221627000Y-107663000D01*
X222820155Y-107663000D01*
X222941476Y-107433110D01*
X222896825Y-107285901D01*
X222771641Y-107023080D01*
X222597588Y-106789731D01*
X222513534Y-106713966D01*
X222594180Y-106689502D01*
X222704494Y-106630537D01*
X222801185Y-106551185D01*
X222880537Y-106454494D01*
X222939502Y-106344180D01*
X222963218Y-106266000D01*
X223829160Y-106266000D01*
X226903159Y-109340000D01*
X60660000Y-109340000D01*
X60660000Y-108146890D01*
X69808524Y-108146890D01*
X69853175Y-108294099D01*
X69978359Y-108556920D01*
X70152412Y-108790269D01*
X70368645Y-108985178D01*
X70618748Y-109134157D01*
X70893109Y-109231481D01*
X71123000Y-109110814D01*
X71123000Y-107917000D01*
X71377000Y-107917000D01*
X71377000Y-109110814D01*
X71606891Y-109231481D01*
X71881252Y-109134157D01*
X72131355Y-108985178D01*
X72347588Y-108790269D01*
X72521641Y-108556920D01*
X72646825Y-108294099D01*
X72691476Y-108146890D01*
X120058524Y-108146890D01*
X120103175Y-108294099D01*
X120228359Y-108556920D01*
X120402412Y-108790269D01*
X120618645Y-108985178D01*
X120868748Y-109134157D01*
X121143109Y-109231481D01*
X121373000Y-109110814D01*
X121373000Y-107917000D01*
X121627000Y-107917000D01*
X121627000Y-109110814D01*
X121856891Y-109231481D01*
X122131252Y-109134157D01*
X122381355Y-108985178D01*
X122597588Y-108790269D01*
X122771641Y-108556920D01*
X122896825Y-108294099D01*
X122941476Y-108146890D01*
X170058524Y-108146890D01*
X170103175Y-108294099D01*
X170228359Y-108556920D01*
X170402412Y-108790269D01*
X170618645Y-108985178D01*
X170868748Y-109134157D01*
X171143109Y-109231481D01*
X171373000Y-109110814D01*
X171373000Y-107917000D01*
X171627000Y-107917000D01*
X171627000Y-109110814D01*
X171856891Y-109231481D01*
X172131252Y-109134157D01*
X172381355Y-108985178D01*
X172597588Y-108790269D01*
X172771641Y-108556920D01*
X172896825Y-108294099D01*
X172941476Y-108146890D01*
X220058524Y-108146890D01*
X220103175Y-108294099D01*
X220228359Y-108556920D01*
X220402412Y-108790269D01*
X220618645Y-108985178D01*
X220868748Y-109134157D01*
X221143109Y-109231481D01*
X221373000Y-109110814D01*
X221373000Y-107917000D01*
X221627000Y-107917000D01*
X221627000Y-109110814D01*
X221856891Y-109231481D01*
X222131252Y-109134157D01*
X222381355Y-108985178D01*
X222597588Y-108790269D01*
X222771641Y-108556920D01*
X222896825Y-108294099D01*
X222941476Y-108146890D01*
X222820155Y-107917000D01*
X221627000Y-107917000D01*
X221373000Y-107917000D01*
X220179845Y-107917000D01*
X220058524Y-108146890D01*
X172941476Y-108146890D01*
X172820155Y-107917000D01*
X171627000Y-107917000D01*
X171373000Y-107917000D01*
X170179845Y-107917000D01*
X170058524Y-108146890D01*
X122941476Y-108146890D01*
X122820155Y-107917000D01*
X121627000Y-107917000D01*
X121373000Y-107917000D01*
X120179845Y-107917000D01*
X120058524Y-108146890D01*
X72691476Y-108146890D01*
X72570155Y-107917000D01*
X71377000Y-107917000D01*
X71123000Y-107917000D01*
X69929845Y-107917000D01*
X69808524Y-108146890D01*
X60660000Y-108146890D01*
X60660000Y-104400000D01*
X69761928Y-104400000D01*
X69761928Y-106100000D01*
X69774188Y-106224482D01*
X69810498Y-106344180D01*
X69869463Y-106454494D01*
X69948815Y-106551185D01*
X70045506Y-106630537D01*
X70155820Y-106689502D01*
X70236466Y-106713966D01*
X70152412Y-106789731D01*
X69978359Y-107023080D01*
X69853175Y-107285901D01*
X69808524Y-107433110D01*
X69929845Y-107663000D01*
X71123000Y-107663000D01*
X71123000Y-107643000D01*
X71377000Y-107643000D01*
X71377000Y-107663000D01*
X72570155Y-107663000D01*
X72691476Y-107433110D01*
X72646825Y-107285901D01*
X72521641Y-107023080D01*
X72347588Y-106789731D01*
X72263534Y-106713966D01*
X72344180Y-106689502D01*
X72454494Y-106630537D01*
X72551185Y-106551185D01*
X72630537Y-106454494D01*
X72689502Y-106344180D01*
X72725812Y-106224482D01*
X72738072Y-106100000D01*
X72738072Y-104400000D01*
X120011928Y-104400000D01*
X120011928Y-106100000D01*
X120024188Y-106224482D01*
X120060498Y-106344180D01*
X120119463Y-106454494D01*
X120198815Y-106551185D01*
X120295506Y-106630537D01*
X120405820Y-106689502D01*
X120486466Y-106713966D01*
X120402412Y-106789731D01*
X120228359Y-107023080D01*
X120103175Y-107285901D01*
X120058524Y-107433110D01*
X120179845Y-107663000D01*
X121373000Y-107663000D01*
X121373000Y-107643000D01*
X121627000Y-107643000D01*
X121627000Y-107663000D01*
X122820155Y-107663000D01*
X122941476Y-107433110D01*
X122896825Y-107285901D01*
X122771641Y-107023080D01*
X122597588Y-106789731D01*
X122513534Y-106713966D01*
X122594180Y-106689502D01*
X122704494Y-106630537D01*
X122801185Y-106551185D01*
X122880537Y-106454494D01*
X122939502Y-106344180D01*
X122975812Y-106224482D01*
X122988072Y-106100000D01*
X122988072Y-104400000D01*
X122975812Y-104275518D01*
X122939502Y-104155820D01*
X122880537Y-104045506D01*
X122801185Y-103948815D01*
X122704494Y-103869463D01*
X122594180Y-103810498D01*
X122474482Y-103774188D01*
X122350000Y-103761928D01*
X120650000Y-103761928D01*
X120525518Y-103774188D01*
X120405820Y-103810498D01*
X120295506Y-103869463D01*
X120198815Y-103948815D01*
X120119463Y-104045506D01*
X120060498Y-104155820D01*
X120024188Y-104275518D01*
X120011928Y-104400000D01*
X72738072Y-104400000D01*
X72725812Y-104275518D01*
X72689502Y-104155820D01*
X72630537Y-104045506D01*
X72551185Y-103948815D01*
X72454494Y-103869463D01*
X72344180Y-103810498D01*
X72224482Y-103774188D01*
X72100000Y-103761928D01*
X70400000Y-103761928D01*
X70275518Y-103774188D01*
X70155820Y-103810498D01*
X70045506Y-103869463D01*
X69948815Y-103948815D01*
X69869463Y-104045506D01*
X69810498Y-104155820D01*
X69774188Y-104275518D01*
X69761928Y-104400000D01*
X60660000Y-104400000D01*
X60660000Y-100660000D01*
X245340000Y-100660000D01*
X245340001Y-109340000D01*
M02*
