G04 #@! TF.GenerationSoftware,KiCad,Pcbnew,(5.1.4)-1*
G04 #@! TF.CreationDate,2019-12-12T15:19:52+01:00*
G04 #@! TF.ProjectId,12V power card,31325620-706f-4776-9572-20636172642e,rev?*
G04 #@! TF.SameCoordinates,Original*
G04 #@! TF.FileFunction,Soldermask,Top*
G04 #@! TF.FilePolarity,Negative*
%FSLAX46Y46*%
G04 Gerber Fmt 4.6, Leading zero omitted, Abs format (unit mm)*
G04 Created by KiCad (PCBNEW (5.1.4)-1) date 2019-12-12 15:19:52*
%MOMM*%
%LPD*%
G04 APERTURE LIST*
%ADD10C,0.100000*%
G04 APERTURE END LIST*
D10*
G36*
X171610443Y-106895519D02*
G01*
X171676627Y-106902037D01*
X171846466Y-106953557D01*
X172002991Y-107037222D01*
X172038729Y-107066552D01*
X172140186Y-107149814D01*
X172223448Y-107251271D01*
X172252778Y-107287009D01*
X172336443Y-107443534D01*
X172387963Y-107613373D01*
X172405359Y-107790000D01*
X172387963Y-107966627D01*
X172336443Y-108136466D01*
X172252778Y-108292991D01*
X172223448Y-108328729D01*
X172140186Y-108430186D01*
X172038729Y-108513448D01*
X172002991Y-108542778D01*
X171846466Y-108626443D01*
X171676627Y-108677963D01*
X171610442Y-108684482D01*
X171544260Y-108691000D01*
X171455740Y-108691000D01*
X171389558Y-108684482D01*
X171323373Y-108677963D01*
X171153534Y-108626443D01*
X170997009Y-108542778D01*
X170961271Y-108513448D01*
X170859814Y-108430186D01*
X170776552Y-108328729D01*
X170747222Y-108292991D01*
X170663557Y-108136466D01*
X170612037Y-107966627D01*
X170594641Y-107790000D01*
X170612037Y-107613373D01*
X170663557Y-107443534D01*
X170747222Y-107287009D01*
X170776552Y-107251271D01*
X170859814Y-107149814D01*
X170961271Y-107066552D01*
X170997009Y-107037222D01*
X171153534Y-106953557D01*
X171323373Y-106902037D01*
X171389557Y-106895519D01*
X171455740Y-106889000D01*
X171544260Y-106889000D01*
X171610443Y-106895519D01*
X171610443Y-106895519D01*
G37*
G36*
X221610443Y-106895519D02*
G01*
X221676627Y-106902037D01*
X221846466Y-106953557D01*
X222002991Y-107037222D01*
X222038729Y-107066552D01*
X222140186Y-107149814D01*
X222223448Y-107251271D01*
X222252778Y-107287009D01*
X222336443Y-107443534D01*
X222387963Y-107613373D01*
X222405359Y-107790000D01*
X222387963Y-107966627D01*
X222336443Y-108136466D01*
X222252778Y-108292991D01*
X222223448Y-108328729D01*
X222140186Y-108430186D01*
X222038729Y-108513448D01*
X222002991Y-108542778D01*
X221846466Y-108626443D01*
X221676627Y-108677963D01*
X221610442Y-108684482D01*
X221544260Y-108691000D01*
X221455740Y-108691000D01*
X221389558Y-108684482D01*
X221323373Y-108677963D01*
X221153534Y-108626443D01*
X220997009Y-108542778D01*
X220961271Y-108513448D01*
X220859814Y-108430186D01*
X220776552Y-108328729D01*
X220747222Y-108292991D01*
X220663557Y-108136466D01*
X220612037Y-107966627D01*
X220594641Y-107790000D01*
X220612037Y-107613373D01*
X220663557Y-107443534D01*
X220747222Y-107287009D01*
X220776552Y-107251271D01*
X220859814Y-107149814D01*
X220961271Y-107066552D01*
X220997009Y-107037222D01*
X221153534Y-106953557D01*
X221323373Y-106902037D01*
X221389557Y-106895519D01*
X221455740Y-106889000D01*
X221544260Y-106889000D01*
X221610443Y-106895519D01*
X221610443Y-106895519D01*
G37*
G36*
X121610443Y-106895519D02*
G01*
X121676627Y-106902037D01*
X121846466Y-106953557D01*
X122002991Y-107037222D01*
X122038729Y-107066552D01*
X122140186Y-107149814D01*
X122223448Y-107251271D01*
X122252778Y-107287009D01*
X122336443Y-107443534D01*
X122387963Y-107613373D01*
X122405359Y-107790000D01*
X122387963Y-107966627D01*
X122336443Y-108136466D01*
X122252778Y-108292991D01*
X122223448Y-108328729D01*
X122140186Y-108430186D01*
X122038729Y-108513448D01*
X122002991Y-108542778D01*
X121846466Y-108626443D01*
X121676627Y-108677963D01*
X121610442Y-108684482D01*
X121544260Y-108691000D01*
X121455740Y-108691000D01*
X121389558Y-108684482D01*
X121323373Y-108677963D01*
X121153534Y-108626443D01*
X120997009Y-108542778D01*
X120961271Y-108513448D01*
X120859814Y-108430186D01*
X120776552Y-108328729D01*
X120747222Y-108292991D01*
X120663557Y-108136466D01*
X120612037Y-107966627D01*
X120594641Y-107790000D01*
X120612037Y-107613373D01*
X120663557Y-107443534D01*
X120747222Y-107287009D01*
X120776552Y-107251271D01*
X120859814Y-107149814D01*
X120961271Y-107066552D01*
X120997009Y-107037222D01*
X121153534Y-106953557D01*
X121323373Y-106902037D01*
X121389557Y-106895519D01*
X121455740Y-106889000D01*
X121544260Y-106889000D01*
X121610443Y-106895519D01*
X121610443Y-106895519D01*
G37*
G36*
X71360443Y-106895519D02*
G01*
X71426627Y-106902037D01*
X71596466Y-106953557D01*
X71752991Y-107037222D01*
X71788729Y-107066552D01*
X71890186Y-107149814D01*
X71973448Y-107251271D01*
X72002778Y-107287009D01*
X72086443Y-107443534D01*
X72137963Y-107613373D01*
X72155359Y-107790000D01*
X72137963Y-107966627D01*
X72086443Y-108136466D01*
X72002778Y-108292991D01*
X71973448Y-108328729D01*
X71890186Y-108430186D01*
X71788729Y-108513448D01*
X71752991Y-108542778D01*
X71596466Y-108626443D01*
X71426627Y-108677963D01*
X71360442Y-108684482D01*
X71294260Y-108691000D01*
X71205740Y-108691000D01*
X71139558Y-108684482D01*
X71073373Y-108677963D01*
X70903534Y-108626443D01*
X70747009Y-108542778D01*
X70711271Y-108513448D01*
X70609814Y-108430186D01*
X70526552Y-108328729D01*
X70497222Y-108292991D01*
X70413557Y-108136466D01*
X70362037Y-107966627D01*
X70344641Y-107790000D01*
X70362037Y-107613373D01*
X70413557Y-107443534D01*
X70497222Y-107287009D01*
X70526552Y-107251271D01*
X70609814Y-107149814D01*
X70711271Y-107066552D01*
X70747009Y-107037222D01*
X70903534Y-106953557D01*
X71073373Y-106902037D01*
X71139557Y-106895519D01*
X71205740Y-106889000D01*
X71294260Y-106889000D01*
X71360443Y-106895519D01*
X71360443Y-106895519D01*
G37*
G36*
X241913500Y-107913500D02*
G01*
X240086500Y-107913500D01*
X240086500Y-106086500D01*
X241913500Y-106086500D01*
X241913500Y-107913500D01*
X241913500Y-107913500D01*
G37*
G36*
X222401000Y-106151000D02*
G01*
X220599000Y-106151000D01*
X220599000Y-104349000D01*
X222401000Y-104349000D01*
X222401000Y-106151000D01*
X222401000Y-106151000D01*
G37*
G36*
X172401000Y-106151000D02*
G01*
X170599000Y-106151000D01*
X170599000Y-104349000D01*
X172401000Y-104349000D01*
X172401000Y-106151000D01*
X172401000Y-106151000D01*
G37*
G36*
X122401000Y-106151000D02*
G01*
X120599000Y-106151000D01*
X120599000Y-104349000D01*
X122401000Y-104349000D01*
X122401000Y-106151000D01*
X122401000Y-106151000D01*
G37*
G36*
X72151000Y-106151000D02*
G01*
X70349000Y-106151000D01*
X70349000Y-104349000D01*
X72151000Y-104349000D01*
X72151000Y-106151000D01*
X72151000Y-106151000D01*
G37*
G36*
X241178215Y-103564053D02*
G01*
X241266458Y-103581605D01*
X241335319Y-103610128D01*
X241432703Y-103650466D01*
X241582322Y-103750438D01*
X241709562Y-103877678D01*
X241809534Y-104027297D01*
X241878395Y-104193543D01*
X241913500Y-104370027D01*
X241913500Y-104549973D01*
X241878395Y-104726457D01*
X241809534Y-104892703D01*
X241709562Y-105042322D01*
X241582322Y-105169562D01*
X241432703Y-105269534D01*
X241335319Y-105309872D01*
X241266458Y-105338395D01*
X241178215Y-105355947D01*
X241089973Y-105373500D01*
X240910027Y-105373500D01*
X240821785Y-105355947D01*
X240733542Y-105338395D01*
X240664681Y-105309872D01*
X240567297Y-105269534D01*
X240417678Y-105169562D01*
X240290438Y-105042322D01*
X240190466Y-104892703D01*
X240121605Y-104726457D01*
X240086500Y-104549973D01*
X240086500Y-104370027D01*
X240121605Y-104193543D01*
X240190466Y-104027297D01*
X240290438Y-103877678D01*
X240417678Y-103750438D01*
X240567297Y-103650466D01*
X240664681Y-103610128D01*
X240733542Y-103581605D01*
X240821785Y-103564053D01*
X240910027Y-103546500D01*
X241089973Y-103546500D01*
X241178215Y-103564053D01*
X241178215Y-103564053D01*
G37*
M02*
